<svg width="22" height="22" viewBox="0 0 22 22" fill="none" xmlns="http://www.w3.org/2000/svg">
<path d="M18.9577 0.499998H7.05517C6.90375 0.501785 6.75293 0.519381 6.60517 0.552498C6.37406 0.519816 6.14107 0.502279 5.90767 0.499998C4.67171 0.497134 3.47911 0.955363 2.56305 1.78509C1.64699 2.61483 1.07335 3.7564 0.954262 4.98661C0.835179 6.21683 1.17922 7.44723 1.91913 8.43726C2.65904 9.42729 3.7416 10.1058 4.95517 10.34V19.4C4.95715 19.9563 5.17903 20.4893 5.57243 20.8827C5.96583 21.2761 6.49882 21.498 7.05517 21.5H18.9577C19.2334 21.5 19.5065 21.4457 19.7613 21.3401C20.0161 21.2346 20.2476 21.0799 20.4426 20.8849C20.6376 20.6899 20.7923 20.4584 20.8978 20.2036C21.0034 19.9488 21.0577 19.6758 21.0577 19.4V2.6C21.0577 2.04304 20.8364 1.5089 20.4426 1.11507C20.0488 0.721247 19.5146 0.499998 18.9577 0.499998ZM2.34517 5.465C2.34517 4.7586 2.55474 4.06808 2.94735 3.48083C3.33996 2.89359 3.89796 2.43602 4.55073 2.16604C5.2035 1.89605 5.92169 1.82579 6.6144 1.96415C7.30712 2.10251 7.94322 2.44327 8.44219 2.94329C8.94117 3.44331 9.28058 4.08013 9.41749 4.77313C9.55439 5.46614 9.48262 6.18418 9.21126 6.83638C8.93991 7.48858 8.48116 8.04562 7.89309 8.43699C7.30502 8.82837 6.61407 9.03648 5.90767 9.035C5.4392 9.035 4.97534 8.9426 4.54263 8.7631C4.10991 8.5836 3.71685 8.32052 3.38595 7.98892C3.05504 7.65731 2.79278 7.2637 2.61419 6.83061C2.4356 6.39752 2.34418 5.93346 2.34517 5.465ZM19.6552 19.4C19.6552 19.585 19.5817 19.7624 19.4509 19.8932C19.3201 20.024 19.1427 20.0975 18.9577 20.0975H7.05517C6.87018 20.0975 6.69277 20.024 6.56196 19.8932C6.43116 19.7624 6.35767 19.585 6.35767 19.4V10.4C7.53974 10.291 8.64252 9.75821 9.46267 8.9C9.52245 8.90722 9.58289 8.90722 9.64267 8.9H16.3927C16.5657 8.9 16.7317 8.83125 16.8541 8.70889C16.9764 8.58652 17.0452 8.42055 17.0452 8.2475C17.0452 8.07444 16.9764 7.90848 16.8541 7.78611C16.7317 7.66374 16.5657 7.595 16.3927 7.595H10.3927C10.8567 6.65346 11.0095 5.58878 10.8288 4.55476C10.6482 3.52074 10.1435 2.57092 9.38767 1.8425H18.9877C19.1727 1.8425 19.3501 1.91598 19.4809 2.04679C19.6117 2.1776 19.6852 2.35501 19.6852 2.54L19.6552 19.4Z" fill="white"/>
</svg>
