<svg width="18" height="16" viewBox="0 0 18 16" fill="none" xmlns="http://www.w3.org/2000/svg">
<path d="M8.99997 8.94145C8.94297 8.94145 8.88657 8.92885 8.83077 8.90425L0.26037 5.06905C0.0989697 4.99705 -0.00363031 4.83205 -3.03128e-05 4.64785C0.00356969 4.46605 0.11457 4.30105 0.27597 4.23805L8.84757 0.829449C8.89677 0.810249 8.94777 0.800049 8.99997 0.800049C9.05157 0.800049 9.10317 0.810249 9.15237 0.829449L17.7234 4.23685C17.8884 4.30285 17.9964 4.46365 18 4.64665C18.0048 4.83145 17.9022 4.99705 17.7396 5.06905L9.16857 8.90605C9.11517 8.92945 9.05757 8.94145 8.99997 8.94145ZM1.57557 4.68085L8.97897 7.99405L16.4244 4.68085L8.99997 1.72945L1.57557 4.68085Z" fill="#424242"/>
<path d="M0.260341 8.29408C0.0437406 8.19628 -0.0576593 7.93169 0.0347407 7.70429C0.102541 7.53929 0.257941 7.43188 0.430141 7.43188C0.488341 7.43188 0.544741 7.44448 0.599341 7.46908L8.97954 11.2185L17.4017 7.46908C17.4569 7.44388 17.5133 7.43188 17.5715 7.43188C17.7431 7.43188 17.8979 7.53809 17.9651 7.70429C18.0581 7.93169 17.9567 8.19628 17.7395 8.29408L8.99994 12.2049L0.260341 8.29408Z" fill="#424242"/>
<path d="M0.260374 11.288C0.0431744 11.1896 -0.0582256 10.9256 0.0347745 10.6994C0.102574 10.5344 0.257974 10.427 0.430174 10.427C0.488374 10.427 0.544774 10.4396 0.599374 10.4636L8.97958 14.2136L17.4018 10.4636C17.4558 10.4402 17.5134 10.427 17.5716 10.427C17.7432 10.427 17.898 10.5344 17.9652 10.6994C18.0582 10.9262 17.9568 11.1908 17.7402 11.288L8.99998 15.2L0.260374 11.288Z" fill="#424242"/>
</svg>
