<svg width="24" height="24" viewBox="0 0 24 24" fill="none" xmlns="http://www.w3.org/2000/svg">
<path d="M20.25 4.50055H3.75C3.33579 4.50055 3 4.83634 3 5.25055V18.7505C3 19.1648 3.33579 19.5005 3.75 19.5005H20.25C20.6642 19.5005 21 19.1648 21 18.7505V5.25055C21 4.83634 20.6642 4.50055 20.25 4.50055Z" stroke="white" stroke-width="1.25" stroke-linecap="round" stroke-linejoin="round"/>
<path d="M7.46094 7.87555C7.46094 8.4753 6.97475 8.96149 6.375 8.96149C5.77525 8.96149 5.28906 8.4753 5.28906 7.87555C5.28906 7.2758 5.77525 6.78961 6.375 6.78961C6.97475 6.78961 7.46094 7.2758 7.46094 7.87555Z" fill="white" stroke="white" stroke-width="0.078125"/>
<path d="M10.125 9.00055C10.7463 9.00055 11.25 8.49687 11.25 7.87555C11.25 7.25423 10.7463 6.75055 10.125 6.75055C9.50368 6.75055 9 7.25423 9 7.87555C9 8.49687 9.50368 9.00055 10.125 9.00055Z" fill="white"/>
</svg>
