<svg width="24" height="24" viewBox="0 0 24 24" fill="none" xmlns="http://www.w3.org/2000/svg">
<path d="M20.0045 10.2768L12.504 3.45793C12.3659 3.33242 12.186 3.26287 11.9995 3.26288C11.8129 3.26288 11.633 3.33244 11.4949 3.45797L3.99545 10.2769C3.91814 10.3471 3.85637 10.4328 3.8141 10.5284C3.77183 10.6239 3.75 10.7273 3.75 10.8318V19.5C3.75 19.6989 3.82902 19.8897 3.96967 20.0304C4.11032 20.171 4.30109 20.25 4.5 20.25H19.5C19.6989 20.25 19.8897 20.171 20.0303 20.0304C20.171 19.8897 20.25 19.6989 20.25 19.5V10.8318C20.25 10.7273 20.2282 10.624 20.1859 10.5284C20.1436 10.4328 20.0818 10.3471 20.0045 10.2768Z" stroke="white" stroke-width="1.25" stroke-linecap="round" stroke-linejoin="round"/>
</svg>
