<svg width="24" height="19" viewBox="0 0 24 19" fill="none" xmlns="http://www.w3.org/2000/svg">
<path fill-rule="evenodd" clip-rule="evenodd" d="M6 12.0103C5.80109 12.0103 5.61032 12.0893 5.46967 12.2299C5.32902 12.3706 5.25 12.5613 5.25 12.7603C5.25 12.9592 5.32902 13.1499 5.46967 13.2906C5.61032 13.4312 5.80109 13.5103 6 13.5103H12C12.1989 13.5103 12.3897 13.4312 12.5303 13.2906C12.671 13.1499 12.75 12.9592 12.75 12.7603C12.75 12.5613 12.671 12.3706 12.5303 12.2299C12.3897 12.0893 12.1989 12.0103 12 12.0103H6Z" fill="white"/>
<path fill-rule="evenodd" clip-rule="evenodd" d="M7.5 9.76025C7.30109 9.76025 7.11032 9.83926 6.96967 9.97991C6.82902 10.1206 6.75 10.3113 6.75 10.5103C6.75 10.7092 6.82902 10.8999 6.96967 11.0406C7.11032 11.1812 7.30109 11.2603 7.5 11.2603H12C12.1989 11.2603 12.3897 11.1812 12.5303 11.0406C12.671 10.8999 12.75 10.7092 12.75 10.5103C12.75 10.3113 12.671 10.1206 12.5303 9.97991C12.3897 9.83926 12.1989 9.76025 12 9.76025H7.5Z" fill="white"/>
<path fill-rule="evenodd" clip-rule="evenodd" d="M9.75 7.51025C9.55109 7.51025 9.36032 7.58926 9.21967 7.72991C9.07902 7.87056 9 8.06134 9 8.26025C9 8.45917 9.07902 8.64992 9.21967 8.79057C9.36032 8.93123 9.55109 9.01025 9.75 9.01025H12C12.1989 9.01025 12.3897 8.93123 12.5303 8.79057C12.671 8.64992 12.75 8.45917 12.75 8.26025C12.75 8.06134 12.671 7.87056 12.5303 7.72991C12.3897 7.58926 12.1989 7.51025 12 7.51025H9.75Z" fill="white"/>
<path fill-rule="evenodd" clip-rule="evenodd" d="M6.66639 3.01466C6.49735 3.0337 6.33981 3.10963 6.21961 3.23L4.87489 4.57472L4.28016 3.98C4.13951 3.83938 3.94877 3.76038 3.74989 3.76038C3.551 3.76038 3.36026 3.83938 3.21961 3.98C3.079 4.12064 3 4.31138 3 4.51027C3 4.70915 3.079 4.89989 3.21961 5.04054L4.34461 6.16554C4.48527 6.30614 4.67601 6.38513 4.87489 6.38513C5.07376 6.38513 5.2645 6.30614 5.40516 6.16554L7.28016 4.29054C7.42078 4.14989 7.49977 3.95915 7.49977 3.76027C7.49977 3.56138 7.42078 3.37064 7.28016 3.23C7.20058 3.15033 7.10409 3.08961 6.99783 3.05234C6.89158 3.01506 6.7783 3.00218 6.66639 3.01466Z" fill="white"/>
<path fill-rule="evenodd" clip-rule="evenodd" d="M5.25 0.0102539C2.77361 0.0102539 0.75 2.03387 0.75 4.51025C0.75 5.83626 1.33076 7.03222 2.25 7.85742V16.5103C2.25002 16.7092 2.32904 16.8999 2.46969 17.0406C2.61034 17.1812 2.80109 17.2602 3 17.2603H4.63037C4.94214 18.1305 5.77848 18.7603 6.75 18.7603C7.72152 18.7603 8.55786 18.1305 8.86963 17.2603H14.25H15.8804C16.1921 18.1305 17.0285 18.7603 18 18.7603C18.9715 18.7603 19.8079 18.1305 20.1196 17.2603H22.5C22.6989 17.2602 22.8897 17.1812 23.0303 17.0406C23.171 16.8999 23.25 16.7092 23.25 16.5103V11.2603C23.2501 11.0899 23.1923 10.9246 23.0859 10.7915L20.0859 7.0415C20.0156 6.95368 19.9264 6.8828 19.825 6.83411C19.7236 6.78543 19.6125 6.76019 19.5 6.76025H15V5.26025C15 5.06135 14.921 4.87058 14.7803 4.72993C14.6397 4.58929 14.4489 4.51027 14.25 4.51025H9.75C9.75 2.03387 7.72639 0.0102539 5.25 0.0102539ZM5.25 1.51025C6.91573 1.51025 8.25 2.84452 8.25 4.51025C8.25 6.17599 6.91573 7.51025 5.25 7.51025C4.61432 7.51025 4.02686 7.3158 3.54346 6.98291C3.48552 6.9217 3.41767 6.87069 3.34277 6.83203C2.67416 6.28333 2.25 5.44946 2.25 4.51025C2.25 2.84452 3.58427 1.51025 5.25 1.51025ZM9.49072 6.01025H13.5V15.7603H8.86963C8.55786 14.89 7.72152 14.2603 6.75 14.2603C5.77848 14.2603 4.94214 14.89 4.63037 15.7603H3.75V8.75098C4.2197 8.9182 4.72451 9.01025 5.25 9.01025C7.20091 9.01025 8.86987 7.75405 9.49072 6.01025ZM15 8.26025H16.5V12.0103C16.5 12.2092 16.579 12.3999 16.7197 12.5406C16.8603 12.6812 17.0511 12.7602 17.25 12.7603H21.75V15.7603H20.1196C19.8079 14.89 18.9715 14.2603 18 14.2603C17.0285 14.2603 16.1921 14.89 15.8804 15.7603H15V8.26025ZM18 8.26025H19.1396L21.5391 11.2603H18V8.26025ZM6.75 15.7603C7.1731 15.7603 7.5 16.0872 7.5 16.5103C7.5 16.9334 7.1731 17.2603 6.75 17.2603C6.3269 17.2603 6 16.9334 6 16.5103C6 16.0872 6.3269 15.7603 6.75 15.7603ZM18 15.7603C18.4231 15.7603 18.75 16.0872 18.75 16.5103C18.75 16.9334 18.4231 17.2603 18 17.2603C17.5769 17.2603 17.25 16.9334 17.25 16.5103C17.25 16.0872 17.5769 15.7603 18 15.7603Z" fill="white"/>
</svg>
