<svg width="22" height="6" viewBox="0 0 22 6" fill="none" xmlns="http://www.w3.org/2000/svg">
<path d="M16.8333 3.00008C16.8333 3.46157 16.9702 3.9127 17.2266 4.29641C17.483 4.68013 17.8474 4.9792 18.2737 5.1558C18.7001 5.33241 19.1693 5.37861 19.6219 5.28858C20.0745 5.19855 20.4903 4.97632 20.8166 4.65C21.1429 4.32368 21.3651 3.90792 21.4552 3.45529C21.5452 3.00267 21.499 2.53352 21.3224 2.10715C21.1458 1.68079 20.8467 1.31638 20.463 1.05999C20.0793 0.803597 19.6282 0.666749 19.1667 0.666749C18.5478 0.666749 17.9543 0.912582 17.5167 1.35017C17.0792 1.78775 16.8333 2.38124 16.8333 3.00008ZM5.16667 3.00008C5.16667 2.53859 5.02982 2.08747 4.77343 1.70375C4.51704 1.32004 4.15262 1.02097 3.72626 0.844363C3.2999 0.667758 2.83075 0.62155 2.37812 0.711583C1.9255 0.801615 1.50974 1.02384 1.18342 1.35017C0.857096 1.67649 0.634867 2.09225 0.544834 2.54487C0.454803 2.99749 0.501011 3.46665 0.677614 3.89301C0.854219 4.31937 1.15329 4.68379 1.537 4.94018C1.92072 5.19657 2.37184 5.33341 2.83333 5.33341C3.45217 5.33341 4.04566 5.08758 4.48325 4.65C4.92083 4.21241 5.16667 3.61892 5.16667 3.00008ZM13.3333 3.00008C13.3333 2.53859 13.1965 2.08747 12.9401 1.70375C12.6837 1.32004 12.3193 1.02097 11.8929 0.844363C11.4666 0.667759 10.9974 0.621551 10.5448 0.711583C10.0922 0.801615 9.67641 1.02384 9.35008 1.35017C9.02376 1.67649 8.80153 2.09225 8.7115 2.54487C8.62147 2.99749 8.66768 3.46665 8.84428 3.89301C9.02088 4.31937 9.31995 4.68379 9.70367 4.94018C10.0874 5.19657 10.5385 5.33342 11 5.33342C11.6188 5.33342 12.2123 5.08758 12.6499 4.65C13.0875 4.21241 13.3333 3.61892 13.3333 3.00008Z" fill="#424242"/>
</svg>
