<svg width="25" height="24" viewBox="0 0 25 24" fill="none" xmlns="http://www.w3.org/2000/svg">
<g clip-path="url(#clip0_299_1296)">
<path d="M24.2422 17.8839C24.2422 19.2 23.197 20.129 21.9196 20.129H2.56477C1.28735 20.129 0.242188 19.2 0.242188 17.8839V6.11613C0.242188 4.8 1.28735 3.87097 2.56477 3.87097H21.9196C23.197 3.87097 24.2422 4.8 24.2422 6.11613V17.8839Z" fill="white"/>
<path d="M2.56494 3.87097H21.9198C23.1972 3.87097 24.2424 4.8 24.2424 6.11613V17.8839C24.2424 19.2 23.1585 20.129 21.8811 20.129" fill="#E9F3F4"/>
<path d="M24.2422 17.8452C24.2422 19.1613 23.197 20.129 21.9196 20.129H2.56477C1.28735 20.129 0.242188 19.1226 0.242188 17.8065" fill="#D9ECED"/>
<path d="M2.56494 3.87097H21.9198C23.1972 3.87097 24.2424 4.8 24.2424 6.11613V10.4516" fill="#D9ECED"/>
<path d="M24.2422 10.4516H13.7906V3.87097H10.6938V10.4516H0.242188V13.5484H10.6938V20.129H13.7906V13.5484H24.2422V10.4516Z" fill="#D32027"/>
<path d="M13.7906 17.8065H10.6938V20.129H13.7906V17.8065Z" fill="#AA0015"/>
<path d="M13.7906 3.87097H10.6938V10.4516H10.4229L14.0616 13.5484H24.2422V10.4516H13.7906V3.87097Z" fill="#AA0015"/>
</g>
<defs>
<clipPath id="clip0_299_1296">
<rect width="24" height="24" fill="white" transform="translate(0.242188)"/>
</clipPath>
</defs>
</svg>
