<svg width="25" height="24" viewBox="0 0 25 24" fill="none" xmlns="http://www.w3.org/2000/svg">
<g clip-path="url(#clip0_299_1285)">
<path d="M24.2422 18C24.2422 18.7072 23.9612 19.3855 23.4611 19.8856C22.961 20.3857 22.2828 20.6667 21.5755 20.6667H2.90885C2.20161 20.6667 1.52333 20.3857 1.02324 19.8856C0.523139 19.3855 0.242188 18.7072 0.242188 18V5.99999C0.242188 5.29275 0.523139 4.61447 1.02324 4.11438C1.52333 3.61428 2.20161 3.33333 2.90885 3.33333H21.5755C22.2828 3.33333 22.961 3.61428 23.4611 4.11438C23.9612 4.61447 24.2422 5.29275 24.2422 5.99999V18Z" fill="#141414"/>
<path d="M0.242188 8.66667H24.2422V15.3333H0.242188V8.66667Z" fill="#EEEEEE"/>
<path d="M21.5755 3.33333H2.90885C2.20161 3.33333 1.52333 3.61428 1.02324 4.11438C0.523139 4.61447 0.242188 5.29275 0.242188 5.99999L0.242188 8.66666H24.2422V5.99999C24.2422 5.29275 23.9612 4.61447 23.4611 4.11438C22.961 3.61428 22.2828 3.33333 21.5755 3.33333Z" fill="#CE1225"/>
<path d="M10.0757 14.3747C10.0757 14.3747 10.0864 14.5413 10.2317 14.6247C10.2317 14.6247 10.1904 14.75 10.3464 14.8227C10.5024 14.8953 11.065 15.01 12.0443 15.01C13.0237 15.01 13.5757 14.906 13.7217 14.8327C13.8677 14.76 13.8777 14.5933 13.8777 14.5933C13.8777 14.5933 14.0337 14.51 14.0237 14.406C14.013 14.302 13.805 14.1873 13.805 14.1873C13.805 14.1873 13.753 14.052 13.607 14C13.461 13.948 12.9924 14.2293 12.0964 14.1873C11.2004 14.146 10.6904 14.01 10.5237 14.0207C10.357 14.0313 10.2844 14.198 10.2844 14.198C10.2844 14.198 10.0964 14.2813 10.0757 14.3747Z" fill="#BF9300"/>
<path d="M10.1903 14.3647C10.1817 14.4267 10.3157 14.5627 10.3157 14.5627C10.3157 14.5627 10.3157 14.7187 10.451 14.7607C10.5863 14.8027 11.1383 14.9067 12.0343 14.896C12.9303 14.8853 13.5657 14.8333 13.6383 14.7707C13.711 14.708 13.7737 14.5727 13.7737 14.5727C13.7737 14.5727 13.9197 14.4687 13.909 14.3853C13.8983 14.302 13.6903 14.25 13.6903 14.25C13.6903 14.25 13.6317 14.1247 13.5623 14.0727C13.493 14.0207 13.045 14.2807 12.0863 14.2807C11.1483 14.2807 10.607 14.0513 10.5137 14.062C10.4197 14.0727 10.3577 14.2493 10.3577 14.2493C10.3577 14.2493 10.201 14.292 10.1903 14.3647Z" fill="#EEEEEE"/>
<path d="M14.1482 10.3227C14.1482 10.3227 14.1275 9.83334 13.6795 9.89534C13.2315 9.958 13.2002 10.1767 12.7209 10.2287L12.6222 10.238C12.5422 10.0213 12.4981 9.79293 12.4915 9.562C12.4915 9.24934 12.5855 9.114 12.2622 8.958C11.9395 8.802 11.8769 8.94733 11.8769 8.94733C11.8769 8.94733 11.6269 8.822 11.5122 8.916C11.3975 9.01 11.4602 9.24933 11.5122 9.17667C11.5642 9.104 11.7729 9.312 11.7729 9.312C11.8435 9.658 11.6429 10.0327 11.5055 10.2413C11.4582 10.2367 11.4202 10.2347 11.3669 10.2287C10.8875 10.1767 10.8562 9.958 10.4082 9.89534C9.96021 9.83267 9.93954 10.3227 9.93954 10.3227L9.76221 14.104L10.1269 13.8227L10.1289 13.778L10.8875 13.104L11.0142 12.9773L10.7002 13.8953C10.7002 13.8953 10.2209 13.864 10.3562 14.2493C10.3562 14.2493 10.4289 14.0307 10.5542 14.072C10.6795 14.1133 11.0435 14.2073 11.0435 14.2073L11.1689 14.4053L11.3249 14.2593L11.8142 14.2387C11.8142 14.2387 11.9702 14.28 11.9602 14.416C11.9889 14.3575 11.9975 14.2912 11.9849 14.2273L12.1322 14.2173C12.1164 14.2844 12.1244 14.3549 12.1549 14.4167C12.1442 14.2813 12.3009 14.2393 12.3009 14.2393L12.7902 14.26L12.9469 14.406L13.0722 14.208C13.0722 14.208 13.4362 14.114 13.5609 14.0727C13.6855 14.0313 13.7589 14.25 13.7589 14.25C13.8942 13.8647 13.4149 13.896 13.4149 13.896L13.1155 13.0207L13.1995 13.1047L13.9582 13.7787L13.9602 13.8233L14.3249 14.1047L14.1482 10.3227ZM12.0769 12.6147C11.3255 12.1507 11.2635 10.9793 11.2635 10.9793C11.2635 10.9793 11.7282 10.9553 12.0655 10.7187C12.3695 10.9887 12.8882 10.958 12.8882 10.958C12.8882 10.958 12.8529 12.134 12.0769 12.6147ZM13.7942 10.1773L13.1589 10.7813L13.0522 10.824C12.9429 10.828 12.4109 10.8293 12.0755 10.5313C11.6589 10.8233 11.0862 10.844 11.0862 10.844L10.9975 10.8087L10.2942 10.1773L10.1095 10.2533C10.1175 10.178 10.1589 10.0087 10.3882 10.042C10.7642 10.096 10.9195 10.3027 11.3155 10.344L11.4275 10.3553L11.3882 10.406C11.4495 10.406 11.5402 10.388 11.6069 10.3733L11.6822 10.3807L11.6482 10.4993C11.7015 10.4833 11.7789 10.4373 11.8422 10.3967L12.0155 10.4133L12.0549 10.468L12.1869 10.402L12.2755 10.3933C12.3522 10.438 12.4615 10.478 12.4615 10.478L12.4822 10.374C12.5762 10.4367 12.7322 10.4367 12.7322 10.4367C12.7142 10.422 12.6962 10.3847 12.6775 10.3527L12.7735 10.3427C13.1695 10.3013 13.3242 10.0947 13.7009 10.0407C13.9302 10.008 13.9715 10.1767 13.9795 10.252L13.7942 10.1773Z" fill="#BF9300"/>
<path d="M11.8257 12.594L11.4504 14.0207L10.8257 13.896L11.4717 12.0627L11.8257 12.594ZM12.2917 12.594L12.6664 14.0207L13.2917 13.896L12.6457 12.0627L12.2917 12.594Z" fill="#EEEEEE"/>
<path d="M11.4194 11.094C11.4194 11.094 11.4714 11.698 11.7421 12.1667V10.9587C11.7421 10.9587 11.5648 11.0627 11.4194 11.094ZM12.7214 11.1147C12.7214 11.1147 12.6694 11.7187 12.3988 12.1873V10.9793C12.3981 10.9793 12.5754 11.0833 12.7214 11.1147Z" fill="#BF9300"/>
<path d="M11.5439 9.052C11.5439 9.052 11.6166 8.97933 11.8253 9.12466C11.9606 9.21933 12.0806 9.29133 12.0806 9.29133C12.0806 9.29133 12.1659 9.20133 12.2913 9.222C12.4166 9.24266 12.3466 9.41666 12.3673 9.78066C12.3879 10.1453 12.5339 10.3013 12.5339 10.3013L12.3566 10.1973L12.3673 10.312L12.1693 10.218L12.0753 10.3533L11.9813 10.2073L11.8293 10.3L11.7833 10.176L11.6059 10.27C11.6059 10.27 11.8666 9.94733 11.8873 9.59266C11.8933 9.48666 11.8666 9.24866 11.8666 9.24866C11.8666 9.24866 11.7006 9.04133 11.5439 9.052Z" fill="#EEEEEE"/>
<path d="M10.6067 14.4373C10.4874 14.5087 10.5341 14.552 10.6067 14.5833C10.6794 14.6147 11.1167 14.6673 12.0027 14.6873C12.9087 14.708 13.4714 14.604 13.5441 14.562C13.6167 14.5207 13.6274 14.4473 13.5027 14.4267C13.3774 14.406 12.7527 14.51 11.9921 14.51C11.0547 14.5107 10.6587 14.406 10.6067 14.4373Z" fill="#BF9300"/>
</g>
<defs>
<clipPath id="clip0_299_1285">
<rect width="24" height="24" fill="white" transform="translate(0.242188)"/>
</clipPath>
</defs>
</svg>
