<svg width="25" height="25" viewBox="0 0 25 25" fill="none" xmlns="http://www.w3.org/2000/svg">
<path d="M20.47 10.5H4.46997V18.5C4.46997 21.5 5.46997 22.5 8.46997 22.5H16.47C19.47 22.5 20.47 21.5 20.47 18.5V10.5Z" stroke="white" stroke-width="1.5" stroke-miterlimit="10" stroke-linecap="round" stroke-linejoin="round"/>
<path d="M22 7.5V8.5C22 9.6 21.47 10.5 20 10.5H5C3.47 10.5 3 9.6 3 8.5V7.5C3 6.4 3.47 5.5 5 5.5H20C21.47 5.5 22 6.4 22 7.5Z" stroke="white" stroke-width="1.5" stroke-miterlimit="10" stroke-linecap="round" stroke-linejoin="round"/>
<path d="M12.14 5.5H6.62003C6.28003 5.13 6.29003 4.56 6.65003 4.2L8.07003 2.78C8.44003 2.41 9.05003 2.41 9.42003 2.78L12.14 5.5Z" stroke="white" stroke-width="1.5" stroke-miterlimit="10" stroke-linecap="round" stroke-linejoin="round"/>
<path d="M18.37 5.5H12.85L15.57 2.78C15.94 2.41 16.55 2.41 16.92 2.78L18.34 4.2C18.7 4.56 18.71 5.13 18.37 5.5Z" stroke="white" stroke-width="1.5" stroke-miterlimit="10" stroke-linecap="round" stroke-linejoin="round"/>
<path d="M9.43994 10.5V15.64C9.43994 16.44 10.3199 16.91 10.9899 16.48L11.9299 15.86C12.2699 15.64 12.6999 15.64 13.0299 15.86L13.9199 16.46C14.5799 16.9 15.4699 16.43 15.4699 15.63V10.5H9.43994Z" stroke="white" stroke-width="1.5" stroke-miterlimit="10" stroke-linecap="round" stroke-linejoin="round"/>
</svg>
