<svg width="20" height="17" viewBox="0 0 20 17" fill="none" xmlns="http://www.w3.org/2000/svg">
<path d="M1 14.75C0.585786 14.75 0.25 15.0858 0.25 15.5C0.25 15.9142 0.585786 16.25 1 16.25V14.75ZM19 16.25C19.4142 16.25 19.75 15.9142 19.75 15.5C19.75 15.0858 19.4142 14.75 19 14.75V16.25ZM6.94698 1.73087L7.40151 2.32744V2.32744L6.94698 1.73087ZM7.55302 1.73087L7.09849 2.32744V2.32744L7.55302 1.73087ZM0.560503 5.61543C0.22486 5.85816 0.149537 6.32702 0.392264 6.66266C0.634991 6.99831 1.10385 7.07363 1.4395 6.8309L0.560503 5.61543ZM13.0605 6.8309C13.3961 7.07363 13.865 6.99831 14.1077 6.66266C14.3505 6.32702 14.2751 5.85816 13.9395 5.61543L13.0605 6.8309ZM4.75 15.5C4.75 15.9142 5.08579 16.25 5.5 16.25C5.91421 16.25 6.25 15.9142 6.25 15.5H4.75ZM8.25 15.5C8.25 15.9142 8.58579 16.25 9 16.25C9.41421 16.25 9.75 15.9142 9.75 15.5H8.25ZM6.5 5.75C6.08579 5.75 5.75 6.08578 5.75 6.5C5.75 6.91421 6.08579 7.25 6.5 7.25V5.75ZM8 7.25C8.41421 7.25 8.75 6.91421 8.75 6.5C8.75 6.08578 8.41421 5.75 8 5.75V7.25ZM1 16.25H19V14.75H1V16.25ZM17.75 8V10H19.25V8H17.75ZM16.25 10V8H14.75V10H16.25ZM17.75 15.5V11.5H16.25V15.5H17.75ZM14.75 10C14.75 11.2426 15.7574 12.25 17 12.25V10.75C16.5858 10.75 16.25 10.4142 16.25 10H14.75ZM17.75 10C17.75 10.4142 17.4142 10.75 17 10.75V12.25C18.2426 12.25 19.25 11.2426 19.25 10H17.75ZM17 7.25C17.4142 7.25 17.75 7.58578 17.75 8H19.25C19.25 6.75736 18.2426 5.75 17 5.75V7.25ZM17 5.75C15.7574 5.75 14.75 6.75736 14.75 8H16.25C16.25 7.58578 16.5858 7.25 17 7.25V5.75ZM2.75 15V5.5H1.25V15H2.75ZM11.75 5.5V15H13.25V5.5H11.75ZM2.45453 6.09657L7.40151 2.32744L6.49245 1.1343L1.54547 4.90342L2.45453 6.09657ZM7.09849 2.32744L12.0455 6.09657L12.9545 4.90342L8.00755 1.1343L7.09849 2.32744ZM1.5605 4.89226L0.560503 5.61543L1.4395 6.8309L2.4395 6.10773L1.5605 4.89226ZM12.0605 6.10773L13.0605 6.8309L13.9395 5.61543L12.9395 4.89226L12.0605 6.10773ZM2.5 16.25H12V14.75H2.5V16.25ZM7.40151 2.32744C7.31201 2.39563 7.18799 2.39563 7.09849 2.32744L8.00755 1.1343C7.56006 0.793349 6.93994 0.793349 6.49245 1.1343L7.40151 2.32744ZM11.75 15C11.75 14.8619 11.8619 14.75 12 14.75V16.25C12.6904 16.25 13.25 15.6904 13.25 15H11.75ZM1.25 15C1.25 15.6904 1.80964 16.25 2.5 16.25V14.75C2.63807 14.75 2.75 14.8619 2.75 15H1.25ZM6.25 15.5V11.25H4.75V15.5H6.25ZM8.25 11.25V15.5H9.75V11.25H8.25ZM7.25 10.25C7.80228 10.25 8.25 10.6977 8.25 11.25H9.75C9.75 9.86928 8.63071 8.75 7.25 8.75V10.25ZM6.25 11.25C6.25 10.6977 6.69772 10.25 7.25 10.25V8.75C5.86929 8.75 4.75 9.86928 4.75 11.25H6.25ZM6.5 7.25H8V5.75H6.5V7.25Z" fill="#64748B"/>
</svg>
