<svg width="30" height="30" viewBox="0 0 30 30" fill="none" xmlns="http://www.w3.org/2000/svg">
<path d="M6.62198 18.139L5.57398 22.049L1.74498 22.13C0.586805 19.9728 -0.0284678 17.566 -0.0476338 15.1176C-0.0667997 12.6692 0.510719 10.2531 1.63498 8.078L5.04398 8.703L6.53698 12.092C5.86524 14.0565 5.89492 16.193 6.62098 18.138L6.62198 18.139Z" fill="#FBBB00"/>
<path d="M29.7849 12.189C30.2957 14.8721 30.0663 17.6436 29.1213 20.2063C28.1763 22.7689 26.5514 25.0258 24.4209 26.735L20.1279 26.516L19.5199 22.723C21.2931 21.6836 22.6554 20.0667 23.3789 18.143H15.3309V12.189H29.7849Z" fill="#518EF8"/>
<path d="M24.42 26.734C22.6982 28.1162 20.6935 29.1027 18.5479 29.6236C16.4023 30.1444 14.1683 30.1869 12.0045 29.7479C9.84063 29.3089 7.79984 28.3993 6.02683 27.0835C4.25381 25.7676 2.79199 24.0779 1.745 22.134L6.621 18.142C7.07874 19.363 7.79779 20.4692 8.72784 21.3833C9.65788 22.2973 10.7764 22.997 12.0052 23.4335C13.234 23.8699 14.5434 24.0326 15.8416 23.91C17.1398 23.7875 18.3956 23.3827 19.521 22.724L24.42 26.734Z" fill="#28B446"/>
<path d="M24.604 3.41598L19.729 7.40698C18.587 6.69579 17.2993 6.25126 15.9618 6.10646C14.6243 5.96166 13.2713 6.12032 12.0036 6.57064C10.7359 7.02095 9.58601 7.75133 8.63955 8.70744C7.69309 9.66354 6.97441 10.8208 6.53696 12.093L1.63696 8.07998C2.67117 6.08384 4.13941 4.34473 5.93384 2.9904C7.72826 1.63608 9.80329 0.700942 12.0065 0.253683C14.2097 -0.193577 16.4851 -0.141597 18.6656 0.405805C20.8461 0.953207 22.8763 1.98213 24.607 3.41698L24.604 3.41598Z" fill="#F14336"/>
</svg>
