<svg width="26" height="30" viewBox="0 0 26 30" fill="none" xmlns="http://www.w3.org/2000/svg">
<path d="M18.624 0C16.8462 0.212804 15.2163 1.09498 14.066 2.467C13.4978 3.11006 13.0713 3.8655 12.8143 4.68421C12.5572 5.50292 12.4753 6.36657 12.574 7.219C13.4681 7.19887 14.3461 6.97718 15.1426 6.57045C15.939 6.16373 16.6334 5.58247 17.174 4.87C17.7255 4.19432 18.1376 3.41604 18.3864 2.58013C18.6353 1.74423 18.7161 0.867292 18.624 0Z" fill="#424242"/>
<path d="M24.9451 10.065C24.2738 9.16577 23.4116 8.4265 22.4205 7.90033C21.4294 7.37417 20.334 7.07419 19.2131 7.02197C16.5221 7.02197 15.3841 8.30997 13.5131 8.30997C11.5861 8.30997 10.1211 7.02597 7.79405 7.02597C6.51951 7.09485 5.28148 7.47622 4.1891 8.13646C3.09672 8.7967 2.18354 9.71554 1.53005 10.812C-0.638945 14.176 -0.269945 20.5 3.24706 25.887C4.51006 27.814 6.19005 29.981 8.38705 30C10.3431 30.019 10.8941 28.746 13.5431 28.733C16.1921 28.72 16.6951 30.017 18.6431 29.997C20.8431 29.98 22.6141 27.578 23.8721 25.651C24.6321 24.5031 25.2807 23.2852 25.8091 22.014C24.6352 21.5646 23.6136 20.79 22.8641 19.7809C22.1146 18.7718 21.6682 17.5701 21.5771 16.3164C21.486 15.0627 21.7541 13.8091 22.3498 12.7023C22.9456 11.5955 23.8445 10.6813 24.9411 10.067L24.9451 10.065Z" fill="#424242"/>
</svg>
