<svg width="39" height="24" viewBox="0 0 39 24" fill="none" xmlns="http://www.w3.org/2000/svg">
<g opacity="0.8">
<path d="M24.3171 21.1399L13.9631 21.1399L13.9631 2.53192L24.3171 2.53192L24.3171 21.1399Z" fill="#FF5F00"/>
<path d="M14.6263 11.8342C14.6263 8.05953 16.3937 4.69713 19.1459 2.53026C17.1333 0.945745 14.5932 0 11.8327 0C5.29753 0 -3.25424e-09 5.29828 -2.09641e-09 11.8342C-9.3858e-10 18.3702 5.29753 23.6685 11.8327 23.6685C14.5932 23.6685 17.1333 22.7227 19.1459 21.1382C16.3937 18.9713 14.6263 15.6089 14.6263 11.8342Z" fill="#EB001B"/>
<path d="M38.2812 11.8342C38.2812 18.3702 32.9836 23.6685 26.4484 23.6685C23.6879 23.6685 21.1479 22.7227 19.1345 21.1382C21.8875 18.9713 23.6548 15.6089 23.6548 11.8342C23.6548 8.05953 21.8875 4.69713 19.1345 2.53026C21.1479 0.945745 23.6879 5.51839e-10 26.4484 8.86391e-10C32.9836 1.67841e-09 38.2812 5.29828 38.2812 11.8342Z" fill="#F79E1B"/>
</g>
</svg>
