<svg width="198" height="55" viewBox="0 0 198 55" fill="none" xmlns="http://www.w3.org/2000/svg">
<path d="M53.992 39.16C52.8827 38.904 52.1573 38.3067 51.816 37.368C51.4747 36.4293 51.2613 35.5333 51.176 34.68C51.1333 34.3387 51.112 34.0187 51.112 33.72C51.112 33.3787 51.112 33.0373 51.112 32.696C51.112 30.8187 51.2827 28.8987 51.624 26.936C52.008 24.9733 52.52 23.1387 53.16 21.432V21.496C53.16 21.4107 53.1813 21.2827 53.224 21.112C53.3093 20.9413 53.3733 20.7707 53.416 20.6L53.608 20.088C53.6507 20.0027 53.672 19.9387 53.672 19.896C53.672 19.8533 53.672 19.832 53.672 19.832C53.6293 19.2347 53.736 18.68 53.992 18.168C54.2907 17.6133 54.5253 17.08 54.696 16.568C55.336 14.648 56.04 12.7493 56.808 10.872C57.576 8.99467 58.4507 7.16 59.432 5.368C59.7733 4.77066 60.0507 4.19467 60.264 3.64C60.52 3.08533 60.8827 2.57333 61.352 2.104C61.736 2.104 62.312 2.18933 63.08 2.36C63.8907 2.488 64.6373 2.70133 65.32 3C66.0027 3.256 66.3653 3.59733 66.408 4.024C66.4507 4.49333 66.3013 5.048 65.96 5.688C65.6187 6.328 65.2133 6.94667 64.744 7.544C64.3173 8.14133 63.976 8.632 63.72 9.016C63.6773 8.97333 63.6133 8.952 63.528 8.952L63.4 9.016C62.8027 9.69867 62.3333 10.3387 61.992 10.936C61.6933 11.4907 61.3733 12.1947 61.032 13.048C60.6907 13.8587 60.1787 14.584 59.496 15.224C58.8133 15.864 58.3013 16.6107 57.96 17.464C57.9173 17.592 57.832 17.848 57.704 18.232C57.6187 18.616 57.5333 19.0213 57.448 19.448C57.4053 19.6613 57.3413 19.9387 57.256 20.28C57.1707 20.6213 57.0853 20.8987 57 21.112C56.9573 21.752 56.7227 22.4133 56.296 23.096C55.912 23.7787 55.5493 24.4613 55.208 25.144C54.8667 25.8267 54.7173 26.5093 54.76 27.192C54.5893 27.4053 54.504 27.6613 54.504 27.96C54.504 28.2587 54.4613 28.536 54.376 28.792C54.248 29.6027 54.0987 30.264 53.928 30.776C53.8 31.2453 53.672 31.736 53.544 32.248C53.4587 32.7173 53.3307 33.3787 53.16 34.232C53.1173 34.36 53.096 34.5093 53.096 34.68C53.096 34.808 53.096 34.9573 53.096 35.128C53.096 35.64 53.16 36.1307 53.288 36.6C53.4587 37.112 53.6933 37.4533 53.992 37.624C54.376 37.7947 54.696 37.9653 54.952 38.136C55.2507 38.3067 55.4 38.4773 55.4 38.648C55.4 38.8613 54.9307 39.032 53.992 39.16ZM7.976 38.968C5.24533 38.968 3.32533 38.1787 2.216 36.6C1.10667 35.064 0.552 33.208 0.552 31.032C0.552 29.8373 0.701333 28.6213 1 27.384C1.29867 26.104 1.66133 24.8667 2.088 23.672C2.17333 23.3733 2.32267 22.9893 2.536 22.52C2.74933 22.0507 2.96267 21.688 3.176 21.432C3.432 21.0907 3.752 20.92 4.136 20.92L4.072 20.792C4.02933 20.7067 3.98667 20.6 3.944 20.472C3.90133 20.3013 3.92267 20.152 4.008 20.024C4.56267 19.2987 5.13867 18.6373 5.736 18.04C6.33333 17.4 6.86667 16.8453 7.336 16.376C7.67733 16.0347 7.99733 15.6933 8.296 15.352C8.59467 15.0107 8.91467 14.6907 9.256 14.392C10.2373 13.5387 11.3893 12.9413 12.712 12.6C14.0773 12.216 15.4853 12.024 16.936 12.024C17.6187 12.024 18.2587 12.152 18.856 12.408C19.496 12.6213 20.1147 12.9413 20.712 13.368V13.816H20.648V13.944C20.3493 13.8587 20.072 13.7947 19.816 13.752C19.56 13.6667 19.3253 13.6027 19.112 13.56C18.8987 13.5173 18.664 13.4747 18.408 13.432C18.1947 13.3893 17.9813 13.368 17.768 13.368C16.4453 13.368 15.08 13.816 13.672 14.712C12.264 15.5653 10.92 16.7173 9.64 18.168C8.36 19.576 7.208 21.1333 6.184 22.84C5.16 24.5467 4.34933 26.2747 3.752 28.024C3.15467 29.7307 2.856 31.3093 2.856 32.76C2.856 34.2533 3.24 35.4693 4.008 36.408C4.776 37.3893 6.03467 37.88 7.784 37.88C8.808 37.88 9.896 37.5813 11.048 36.984C12.2 36.4293 13.288 35.768 14.312 35C15.336 34.1893 16.168 33.4853 16.808 32.888C17.1493 32.5467 17.4693 32.2267 17.768 31.928C18.1093 31.6293 18.4293 31.3307 18.728 31.032C20.8187 28.984 22.76 26.8507 24.552 24.632C26.3867 22.4133 28.1787 20.152 29.928 17.848C30.7813 16.7387 31.656 15.6507 32.552 14.584C33.448 13.4747 34.28 12.3227 35.048 11.128C35.3893 10.5733 35.7093 9.99733 36.008 9.4C36.3067 8.80267 36.5627 8.22666 36.776 7.672C36.904 7.288 36.9893 6.92533 37.032 6.584C37.0747 6.2 37.224 5.83733 37.48 5.496C37.7787 5.496 38.248 5.47467 38.888 5.432C39.528 5.34667 40.168 5.304 40.808 5.304C41.32 5.304 41.768 5.368 42.152 5.496C42.536 5.58133 42.728 5.77333 42.728 6.072V7.096C42.6 7.39467 42.4507 7.69333 42.28 7.992C42.1093 8.248 41.9387 8.52533 41.768 8.824C41.256 9.76267 40.7867 10.7013 40.36 11.64C39.2933 13.944 38.2907 16.5253 37.352 19.384C36.456 22.2427 36.008 24.9947 36.008 27.64C36.008 28.5787 36.1573 29.3893 36.456 30.072C36.7973 30.7547 37.5013 31.1173 38.568 31.16C38.9947 30.9467 39.4 30.7547 39.784 30.584C40.2107 30.4133 40.616 30.2213 41 30.008C42.5787 28.984 43.944 27.768 45.096 26.36C46.2907 24.9093 47.4 23.3947 48.424 21.816C49.448 20.1947 50.4933 18.6373 51.56 17.144C51.7307 16.888 52.008 16.504 52.392 15.992C52.8187 15.48 53.224 14.968 53.608 14.456C53.992 13.9013 54.184 13.5173 54.184 13.304C54.6107 12.8347 54.8667 12.7067 54.952 12.92C55.0373 12.9627 55.08 13.048 55.08 13.176C55.08 13.304 55.0587 13.4107 55.016 13.496C54.9733 13.752 54.6747 14.3707 54.12 15.352C53.608 16.3333 52.9467 17.4853 52.136 18.808C51.3253 20.088 50.4933 21.4107 49.64 22.776C48.8293 24.0987 48.0827 25.272 47.4 26.296C46.7173 27.2773 46.2693 27.9173 46.056 28.216C45.672 28.7707 45.2453 29.3253 44.776 29.88C44.3067 30.4347 43.7733 30.8827 43.176 31.224C42.6213 31.608 41.9813 31.8853 41.256 32.056C40.5307 32.184 39.8267 32.248 39.144 32.248C37.0533 32.248 35.496 31.8 34.472 30.904C33.448 30.008 32.7653 28.5147 32.424 26.424C32.3813 26.2107 32.3387 25.976 32.296 25.72C32.296 25.464 32.296 25.2293 32.296 25.016C32.296 23.608 32.5093 22.2 32.936 20.792C33.4053 19.3413 33.7893 17.9547 34.088 16.632L34.536 14.968L34.728 14.136C34.5573 14.4347 34.3227 14.776 34.024 15.16C33.768 15.544 33.4907 15.9493 33.192 16.376L30.824 19.512C30.2267 20.3653 29.5867 21.1973 28.904 22.008C28.2213 22.8187 27.56 23.6507 26.92 24.504C25.6827 26.1253 24.4453 27.7467 23.208 29.368C21.9707 30.9467 20.6053 32.4187 19.112 33.784C17.5333 35.2347 15.8053 36.4507 13.928 37.432C12.0933 38.456 10.1093 38.968 7.976 38.968ZM67.1745 19.448C66.7478 19.448 66.2358 19.4053 65.6385 19.32C65.0412 19.192 64.7212 18.808 64.6785 18.168C64.6785 18.0827 64.8278 17.8693 65.1265 17.528C65.4678 17.1867 65.8092 16.8453 66.1505 16.504C66.5345 16.1627 66.7692 15.9493 66.8545 15.864C66.9825 15.7787 67.2812 15.544 67.7505 15.16C68.2625 14.776 68.6038 14.712 68.7745 14.968C68.8172 15.0107 68.8385 15.3093 68.8385 15.864V16.76C68.8385 16.8453 68.7958 16.9307 68.7105 17.016C68.6678 17.016 68.5612 17.0587 68.3905 17.144C68.2625 17.1867 68.1985 17.2293 68.1985 17.272L68.2625 17.336C68.3478 17.3787 68.4118 17.464 68.4545 17.592C68.5398 17.72 68.5612 17.8267 68.5185 17.912C68.3478 18.2107 68.1345 18.552 67.8785 18.936C67.6225 19.2773 67.3878 19.448 67.1745 19.448ZM61.2225 35.96C61.0518 35.96 60.6892 35.896 60.1345 35.768C59.6225 35.64 59.2812 35.5333 59.1105 35.448C58.6838 35.1493 58.3852 34.8933 58.2145 34.68C58.0438 34.4667 57.9585 34.0187 57.9585 33.336C57.9585 32.0987 58.2358 30.8827 58.7905 29.688C59.3878 28.4507 59.9212 27.2773 60.3905 26.168C60.4758 26.0827 60.4758 26.0187 60.3905 25.976V25.848C60.2625 25.4213 60.3692 24.9307 60.7105 24.376C61.0518 23.7787 61.4572 23.224 61.9265 22.712C62.3958 22.2 62.7585 21.8587 63.0145 21.688C63.2278 21.688 63.6118 21.7307 64.1665 21.816C64.7212 21.8587 65.2545 21.944 65.7665 22.072C66.2785 22.2 66.5345 22.4133 66.5345 22.712C66.5345 22.7547 66.4705 22.8613 66.3425 23.032C66.2145 23.2027 66.0652 23.3947 65.8945 23.608L65.3825 24.184C65.2118 24.3547 65.1265 24.4613 65.1265 24.504C64.7425 25.1867 64.2305 26.0187 63.5905 27C62.9505 27.9813 62.3532 28.984 61.7985 30.008C61.4145 30.6907 61.0945 31.352 60.8385 31.992C60.6252 32.5893 60.5185 33.1227 60.5185 33.592C60.5185 33.976 60.6038 34.2533 60.7745 34.424C61.2438 34.3387 61.7345 34.04 62.2465 33.528C62.8012 33.016 63.2492 32.5467 63.5905 32.12H63.9105C63.9105 32.5467 63.7612 32.9093 63.4625 33.208L63.2705 33.4C63.0572 33.784 62.7798 34.3173 62.4385 35C62.1398 35.64 61.7345 35.96 61.2225 35.96ZM66.634 38.52C66.378 38.52 66.1647 38.4133 65.994 38.2C65.7807 38.0293 65.5887 37.816 65.418 37.56L65.162 37.176C65.0767 37.0907 64.9913 36.984 64.906 36.856C64.778 36.728 64.6287 36.664 64.458 36.664C64.458 36.4507 64.4153 36.28 64.33 36.152C64.2447 36.024 64.202 35.8533 64.202 35.64C65.098 34.4027 66.2287 33.2933 67.594 32.312C68.9593 31.288 70.346 30.4133 71.754 29.688H71.946C72.202 29.432 72.522 29.2187 72.906 29.048C73.29 28.8773 73.61 28.6427 73.866 28.344C73.1833 28.0027 72.5007 27.7253 71.818 27.512C71.178 27.256 70.5593 26.8933 69.962 26.424C69.45 26.04 68.9593 25.5707 68.49 25.016C68.0207 24.4187 67.786 23.8 67.786 23.16C67.786 22.1787 68.042 21.2187 68.554 20.28C69.1087 19.2987 69.77 18.5947 70.538 18.168C70.7087 17.8693 71.1353 17.5493 71.818 17.208C72.5007 16.8667 73.2047 16.5467 73.93 16.248C74.6553 15.9493 75.1887 15.736 75.53 15.608C75.8287 15.3947 76.1487 15.288 76.49 15.288L77.322 14.904H77.386C77.8127 14.904 78.3033 14.8827 78.858 14.84C79.4127 14.7973 79.8607 14.776 80.202 14.776C80.5007 14.776 80.906 14.904 81.418 15.16C81.93 15.416 82.3993 15.736 82.826 16.12C83.2527 16.4613 83.466 16.8027 83.466 17.144C83.5087 17.3573 83.402 17.6987 83.146 18.168C82.9327 18.5947 82.6767 19.0213 82.378 19.448C82.122 19.832 81.9087 20.0667 81.738 20.152L81.546 20.216H81.29L81.226 19.896C81.4393 19.6827 81.6313 19.3413 81.802 18.872C81.9727 18.4027 82.058 17.9973 82.058 17.656C82.058 17.016 81.6953 16.696 80.97 16.696C80.458 16.696 79.946 16.7813 79.434 16.952C78.9647 17.08 78.4953 17.2293 78.026 17.4C76.362 17.9547 74.89 18.6373 73.61 19.448C72.33 20.216 71.1993 21.4107 70.218 23.032C69.9193 23.5013 69.77 23.928 69.77 24.312C69.77 24.952 70.3247 25.528 71.434 26.04C71.6047 26.0827 71.9673 26.2747 72.522 26.616C73.1193 26.9147 73.6953 27.2133 74.25 27.512C74.8047 27.768 75.082 27.896 75.082 27.896C75.2953 27.896 75.5087 27.8107 75.722 27.64C75.9353 27.4267 76.1273 27.2773 76.298 27.192C77.0233 26.8507 77.9193 26.424 78.986 25.912C80.0527 25.3573 80.97 25.0373 81.738 24.952C81.866 24.9093 81.994 24.8667 82.122 24.824C82.2927 24.7813 82.4633 24.7387 82.634 24.696C82.8473 24.696 82.9967 24.8027 83.082 25.016C82.9967 25.2293 82.8047 25.3787 82.506 25.464C82.2927 25.6347 81.9727 25.8267 81.546 26.04C81.1193 26.2107 80.7567 26.36 80.458 26.488C80.1593 26.5733 79.9033 26.744 79.69 27C79.6473 27.128 79.5193 27.256 79.306 27.384C79.0073 27.5973 78.538 27.9173 77.898 28.344C77.3007 28.728 77.0233 29.1547 77.066 29.624C77.066 29.752 77.194 29.9653 77.45 30.264C77.7487 30.52 77.9193 30.7547 77.962 30.968C78.0047 31.3093 77.9193 31.7787 77.706 32.376C77.5353 32.9733 77.3007 33.4213 77.002 33.72L77.066 33.976C76.7673 34.0613 76.5753 34.1893 76.49 34.36C76.4047 34.488 76.2767 34.6587 76.106 34.872C75.978 35.0427 75.8287 35.1707 75.658 35.256C75.4873 35.384 75.2527 35.448 74.954 35.448L74.634 35.832H74.57C74.2713 35.832 74.0153 35.9387 73.802 36.152C73.5887 36.408 73.3753 36.6427 73.162 36.856L72.97 36.792C72.7567 36.792 72.458 36.8773 72.074 37.048C71.7327 37.2613 71.4553 37.4107 71.242 37.496C70.9433 37.624 70.6233 37.7307 70.282 37.816C69.9407 37.9013 69.5567 37.944 69.13 37.944C69.002 37.944 68.874 37.944 68.746 37.944C68.618 37.944 68.49 37.9227 68.362 37.88C68.3193 37.9227 68.2553 37.944 68.17 37.944L67.978 38.072C67.722 38.1573 67.53 38.2 67.402 38.2C67.146 38.2 67.018 38.1147 67.018 37.944C67.0607 37.816 67.146 37.688 67.274 37.56C67.3593 37.4747 67.5513 37.368 67.85 37.24C68.1487 37.1547 68.4473 37.0267 68.746 36.856C69.0873 36.728 69.386 36.5787 69.642 36.408C69.9407 36.28 70.1753 36.1947 70.346 36.152C70.3887 36.1093 70.4313 36.0667 70.474 36.024C70.5167 35.9813 70.5593 35.9387 70.602 35.896L70.986 35.64C71.5833 35.256 72.2233 34.7653 72.906 34.168C73.5887 33.528 74.1647 32.8453 74.634 32.12C75.146 31.3947 75.3593 30.712 75.274 30.072C75.274 29.9867 75.2527 29.8373 75.21 29.624C75.1673 29.4107 75.082 29.304 74.954 29.304C74.826 29.304 74.6767 29.3893 74.506 29.56C74.3353 29.7307 74.2073 29.8587 74.122 29.944C73.8233 30.1573 73.482 30.3707 73.098 30.584C72.7567 30.7973 72.4153 31.032 72.074 31.288C71.6473 31.5867 71.2633 31.928 70.922 32.312C70.5807 32.6533 70.1967 32.9947 69.77 33.336C69.2153 33.7627 68.682 34.2107 68.17 34.68C67.7007 35.1067 67.2313 35.576 66.762 36.088C66.506 36.4293 66.378 36.8133 66.378 37.24C66.4207 37.4107 66.4847 37.5813 66.57 37.752C66.6553 37.9653 66.7193 38.1787 66.762 38.392L66.698 38.52H66.634ZM81.759 38.52C81.503 38.52 81.2897 38.4133 81.119 38.2C80.9057 38.0293 80.7137 37.816 80.543 37.56L80.287 37.176C80.2017 37.0907 80.1163 36.984 80.031 36.856C79.903 36.728 79.7537 36.664 79.583 36.664C79.583 36.4507 79.5403 36.28 79.455 36.152C79.3697 36.024 79.327 35.8533 79.327 35.64C80.223 34.4027 81.3537 33.2933 82.719 32.312C84.0843 31.288 85.471 30.4133 86.879 29.688H87.071C87.327 29.432 87.647 29.2187 88.031 29.048C88.415 28.8773 88.735 28.6427 88.991 28.344C88.3083 28.0027 87.6257 27.7253 86.943 27.512C86.303 27.256 85.6843 26.8933 85.087 26.424C84.575 26.04 84.0843 25.5707 83.615 25.016C83.1457 24.4187 82.911 23.8 82.911 23.16C82.911 22.1787 83.167 21.2187 83.679 20.28C84.2337 19.2987 84.895 18.5947 85.663 18.168C85.8337 17.8693 86.2603 17.5493 86.943 17.208C87.6257 16.8667 88.3297 16.5467 89.055 16.248C89.7803 15.9493 90.3137 15.736 90.655 15.608C90.9537 15.3947 91.2737 15.288 91.615 15.288L92.447 14.904H92.511C92.9377 14.904 93.4283 14.8827 93.983 14.84C94.5377 14.7973 94.9857 14.776 95.327 14.776C95.6257 14.776 96.031 14.904 96.543 15.16C97.055 15.416 97.5243 15.736 97.951 16.12C98.3777 16.4613 98.591 16.8027 98.591 17.144C98.6337 17.3573 98.527 17.6987 98.271 18.168C98.0577 18.5947 97.8017 19.0213 97.503 19.448C97.247 19.832 97.0337 20.0667 96.863 20.152L96.671 20.216H96.415L96.351 19.896C96.5643 19.6827 96.7563 19.3413 96.927 18.872C97.0977 18.4027 97.183 17.9973 97.183 17.656C97.183 17.016 96.8203 16.696 96.095 16.696C95.583 16.696 95.071 16.7813 94.559 16.952C94.0897 17.08 93.6203 17.2293 93.151 17.4C91.487 17.9547 90.015 18.6373 88.735 19.448C87.455 20.216 86.3243 21.4107 85.343 23.032C85.0443 23.5013 84.895 23.928 84.895 24.312C84.895 24.952 85.4497 25.528 86.559 26.04C86.7297 26.0827 87.0923 26.2747 87.647 26.616C88.2443 26.9147 88.8203 27.2133 89.375 27.512C89.9297 27.768 90.207 27.896 90.207 27.896C90.4203 27.896 90.6337 27.8107 90.847 27.64C91.0603 27.4267 91.2523 27.2773 91.423 27.192C92.1483 26.8507 93.0443 26.424 94.111 25.912C95.1777 25.3573 96.095 25.0373 96.863 24.952C96.991 24.9093 97.119 24.8667 97.247 24.824C97.4177 24.7813 97.5883 24.7387 97.759 24.696C97.9723 24.696 98.1217 24.8027 98.207 25.016C98.1217 25.2293 97.9297 25.3787 97.631 25.464C97.4177 25.6347 97.0977 25.8267 96.671 26.04C96.2443 26.2107 95.8817 26.36 95.583 26.488C95.2843 26.5733 95.0283 26.744 94.815 27C94.7723 27.128 94.6443 27.256 94.431 27.384C94.1323 27.5973 93.663 27.9173 93.023 28.344C92.4257 28.728 92.1483 29.1547 92.191 29.624C92.191 29.752 92.319 29.9653 92.575 30.264C92.8737 30.52 93.0443 30.7547 93.087 30.968C93.1297 31.3093 93.0443 31.7787 92.831 32.376C92.6603 32.9733 92.4257 33.4213 92.127 33.72L92.191 33.976C91.8923 34.0613 91.7003 34.1893 91.615 34.36C91.5297 34.488 91.4017 34.6587 91.231 34.872C91.103 35.0427 90.9537 35.1707 90.783 35.256C90.6123 35.384 90.3777 35.448 90.079 35.448L89.759 35.832H89.695C89.3963 35.832 89.1403 35.9387 88.927 36.152C88.7137 36.408 88.5003 36.6427 88.287 36.856L88.095 36.792C87.8817 36.792 87.583 36.8773 87.199 37.048C86.8577 37.2613 86.5803 37.4107 86.367 37.496C86.0683 37.624 85.7483 37.7307 85.407 37.816C85.0657 37.9013 84.6817 37.944 84.255 37.944C84.127 37.944 83.999 37.944 83.871 37.944C83.743 37.944 83.615 37.9227 83.487 37.88C83.4443 37.9227 83.3803 37.944 83.295 37.944L83.103 38.072C82.847 38.1573 82.655 38.2 82.527 38.2C82.271 38.2 82.143 38.1147 82.143 37.944C82.1857 37.816 82.271 37.688 82.399 37.56C82.4843 37.4747 82.6763 37.368 82.975 37.24C83.2737 37.1547 83.5723 37.0267 83.871 36.856C84.2123 36.728 84.511 36.5787 84.767 36.408C85.0657 36.28 85.3003 36.1947 85.471 36.152C85.5137 36.1093 85.5563 36.0667 85.599 36.024C85.6417 35.9813 85.6843 35.9387 85.727 35.896L86.111 35.64C86.7083 35.256 87.3483 34.7653 88.031 34.168C88.7137 33.528 89.2897 32.8453 89.759 32.12C90.271 31.3947 90.4843 30.712 90.399 30.072C90.399 29.9867 90.3777 29.8373 90.335 29.624C90.2923 29.4107 90.207 29.304 90.079 29.304C89.951 29.304 89.8017 29.3893 89.631 29.56C89.4603 29.7307 89.3323 29.8587 89.247 29.944C88.9483 30.1573 88.607 30.3707 88.223 30.584C87.8817 30.7973 87.5403 31.032 87.199 31.288C86.7723 31.5867 86.3883 31.928 86.047 32.312C85.7057 32.6533 85.3217 32.9947 84.895 33.336C84.3403 33.7627 83.807 34.2107 83.295 34.68C82.8257 35.1067 82.3563 35.576 81.887 36.088C81.631 36.4293 81.503 36.8133 81.503 37.24C81.5457 37.4107 81.6097 37.5813 81.695 37.752C81.7803 37.9653 81.8443 38.1787 81.887 38.392L81.823 38.52H81.759ZM118.237 36.088C116.914 36.088 115.848 35.9173 115.037 35.576C114.269 35.2773 113.33 34.808 112.221 34.168C110.813 33.3147 109.661 32.312 108.765 31.16C107.912 29.9653 107.421 28.6213 107.293 27.128C107.25 26.7013 107.293 26.2107 107.421 25.656C107.506 25.1013 107.57 24.6107 107.613 24.184C107.784 22.4773 108.488 20.6853 109.725 18.808C111.005 16.9307 112.605 15.1173 114.525 13.368C116.488 11.576 118.6 9.95466 120.861 8.504C123.165 7.05333 125.469 5.90133 127.773 5.048C130.12 4.19466 132.296 3.768 134.301 3.768C135.069 3.768 135.794 3.98133 136.477 4.408C137.202 4.83467 137.586 5.432 137.629 6.2C137.629 6.328 137.586 6.60533 137.501 7.032C137.586 6.904 137.693 6.75466 137.821 6.584C137.992 6.41333 138.162 6.24267 138.333 6.072C138.589 5.77333 138.952 5.34667 139.421 4.792C139.933 4.23733 140.402 3.68267 140.829 3.128C141.256 2.53067 141.448 2.08266 141.405 1.784C141.405 1.61333 141.32 1.4 141.149 1.144C140.978 0.887998 140.85 0.695998 140.765 0.567997C141.234 0.695998 141.746 0.930665 142.301 1.272C142.898 1.61333 143.41 1.976 143.837 2.36C144.264 2.744 144.477 3.128 144.477 3.512V3.832C144.434 4.00267 144.2 4.30133 143.773 4.728C143.389 5.112 142.962 5.496 142.493 5.88C142.066 6.264 141.746 6.54133 141.533 6.712C140.978 7.224 140.338 7.97067 139.613 8.952C138.888 9.93333 138.269 10.9573 137.757 12.024C137.245 13.048 136.989 13.9653 136.989 14.776C136.989 15.2453 137.074 15.6293 137.245 15.928C137.416 16.2267 137.714 16.6107 138.141 17.08H137.885V17.272C137.16 17.016 136.328 16.5893 135.389 15.992C134.45 15.3947 133.981 14.7333 133.981 14.008V13.624C133.981 13.4107 133.981 13.24 133.981 13.112C134.024 12.9413 134.066 12.7707 134.109 12.6C134.152 12.4293 134.301 12.024 134.557 11.384C134.856 10.7013 135.133 10.168 135.389 9.784C135.304 9.82667 135.197 9.86933 135.069 9.912C134.984 9.95466 134.856 9.976 134.685 9.976L134.621 9.464C135.261 8.824 135.581 8.056 135.581 7.16C135.581 6.56266 135.368 6.17867 134.941 6.008C134.514 5.79467 133.938 5.688 133.213 5.688C133.085 5.688 132.957 5.70933 132.829 5.752C132.701 5.752 132.594 5.752 132.509 5.752C130.802 6.05067 129.33 6.49867 128.093 7.096C126.898 7.65067 125.746 8.33333 124.637 9.144C123.57 9.912 122.397 10.808 121.117 11.832C120.562 12.2587 120.093 12.6853 119.709 13.112C119.368 13.496 118.984 13.944 118.557 14.456C118.258 14.7547 117.96 15.0533 117.661 15.352C117.362 15.6507 117.042 15.9493 116.701 16.248C116.36 16.5467 116.018 16.8667 115.677 17.208C115.378 17.5067 115.122 17.8053 114.909 18.104C114.482 18.6587 113.992 19.32 113.437 20.088C112.925 20.8133 112.69 21.5813 112.733 22.392C112.349 22.6907 112.029 23.1813 111.773 23.864C111.56 24.5467 111.389 25.2933 111.261 26.104C111.176 26.872 111.133 27.5547 111.133 28.152C111.133 29.2187 111.368 30.3493 111.837 31.544C112.349 32.7387 113.245 33.5707 114.525 34.04C114.994 34.2107 115.485 34.296 115.997 34.296C116.509 34.296 116.978 34.296 117.405 34.296C117.576 34.296 117.896 34.2747 118.365 34.232C118.877 34.1467 119.154 34.0613 119.197 33.976C120.392 33.8907 121.501 33.6347 122.525 33.208C123.549 32.7387 124.594 32.2693 125.661 31.8C126.13 31.6293 126.749 31.3307 127.517 30.904C128.328 30.4773 129.181 30.008 130.077 29.496C131.016 28.984 131.89 28.4933 132.701 28.024C133.512 27.512 134.13 27.128 134.557 26.872C134.898 26.6587 135.197 26.424 135.453 26.168C135.752 25.912 136.05 25.6987 136.349 25.528C136.477 25.4427 136.626 25.336 136.797 25.208C137.01 25.0373 137.224 24.8667 137.437 24.696C137.693 24.4827 137.949 24.2907 138.205 24.12C138.504 23.9067 138.781 23.6933 139.037 23.48C139.592 23.0533 140.104 22.6693 140.573 22.328C141.085 21.9867 141.469 21.7947 141.725 21.752V21.816H141.917C141.746 22.4987 141.448 23.0107 141.021 23.352C140.637 23.6507 140.232 24.0133 139.805 24.44C138.184 26.0187 136.541 27.4693 134.877 28.792C133.213 30.1147 131.378 31.3307 129.373 32.44C129.074 32.6107 128.733 32.76 128.349 32.888C128.008 32.9733 127.666 33.1227 127.325 33.336V33.4H127.069C125.917 34.1253 124.509 34.744 122.845 35.256C121.224 35.8107 119.688 36.088 118.237 36.088ZM155.078 35.64C154.651 35.64 154.161 35.5333 153.606 35.32C153.051 35.1493 152.603 34.9147 152.262 34.616C151.238 33.6773 150.641 32.6107 150.47 31.416C150.299 30.1787 150.171 28.92 150.086 27.64C149.915 27.8533 149.681 28.1093 149.382 28.408C149.126 28.664 148.891 28.8987 148.678 29.112C148.55 29.24 148.422 29.4107 148.294 29.624C148.166 29.7947 148.038 29.9653 147.91 30.136C147.611 30.4347 147.334 30.6693 147.078 30.84C146.822 30.968 146.587 31.1387 146.374 31.352C146.289 31.4373 146.118 31.6507 145.862 31.992C145.777 32.1627 145.649 32.312 145.478 32.44C145.307 32.5253 145.158 32.6533 145.03 32.824C144.731 32.8667 144.475 33.016 144.262 33.272C144.091 33.4853 143.899 33.72 143.686 33.976C143.259 34.1467 142.79 34.3813 142.278 34.68C141.809 34.936 141.339 35.064 140.87 35.064C140.273 35.064 139.611 34.9147 138.886 34.616C138.203 34.3173 137.585 33.912 137.03 33.4C136.475 32.8453 136.155 32.248 136.07 31.608H136.006V30.456C136.006 29.7733 136.091 29.3253 136.262 29.112C136.347 28.984 136.411 28.8347 136.454 28.664C136.497 28.4507 136.539 28.28 136.582 28.152L137.478 26.872C137.606 26.6587 137.926 26.2747 138.438 25.72C138.993 25.1653 139.569 24.6107 140.166 24.056C140.763 23.5013 141.19 23.1173 141.446 22.904C141.787 22.6053 142.299 22.264 142.982 21.88C143.665 21.496 144.347 21.112 145.03 20.728C145.755 20.344 146.331 20.0453 146.758 19.832L147.014 19.768C147.227 19.5973 147.569 19.4267 148.038 19.256C148.55 19.0427 148.913 18.9147 149.126 18.872C149.382 18.7867 149.787 18.744 150.342 18.744C150.897 18.7013 151.323 18.6587 151.622 18.616C151.878 18.616 152.091 18.5733 152.262 18.488L153.606 18.872C154.075 18.9147 154.63 19.128 155.27 19.512C155.91 19.896 156.251 20.3867 156.294 20.984C156.379 21.2827 156.358 21.5173 156.23 21.688L155.654 21.368C155.355 20.8987 154.929 20.6213 154.374 20.536C153.862 20.408 153.329 20.344 152.774 20.344C151.579 20.344 150.299 20.6427 148.934 21.24C147.569 21.7947 146.267 22.5413 145.03 23.48C143.793 24.376 142.683 25.3573 141.702 26.424C140.763 27.4907 140.081 28.5147 139.654 29.496C139.611 29.624 139.569 29.752 139.526 29.88C139.526 30.008 139.505 30.1147 139.462 30.2C139.334 30.6267 139.206 31.032 139.078 31.416C138.993 31.8 138.971 32.2267 139.014 32.696C139.014 32.9947 139.057 33.1653 139.142 33.208C139.227 33.2507 139.398 33.4 139.654 33.656L140.166 33.848L140.614 33.656L141.126 33.464C141.467 33.336 141.745 33.1653 141.958 32.952C142.129 32.8667 142.278 32.824 142.406 32.824C142.534 32.7813 142.598 32.7387 142.598 32.696C142.897 32.6107 143.046 32.504 143.046 32.376C143.089 32.2053 143.217 32.0347 143.43 31.864C144.07 31.2667 144.689 30.6907 145.286 30.136C145.926 29.5387 146.523 28.92 147.078 28.28C147.377 27.9387 147.739 27.5547 148.166 27.128C148.635 26.7013 149.062 26.2747 149.446 25.848C149.574 25.72 149.681 25.592 149.766 25.464C149.894 25.2933 150.001 25.144 150.086 25.016C150.299 24.6747 150.619 24.2053 151.046 23.608C151.473 22.968 151.963 22.648 152.518 22.648C152.603 22.6053 152.731 22.584 152.902 22.584C153.329 22.584 153.67 22.7547 153.926 23.096C154.182 23.3947 154.31 23.7147 154.31 24.056C154.31 24.4827 154.225 24.888 154.054 25.272C153.883 25.6133 153.755 25.976 153.67 26.36C153.499 27.3413 153.414 28.3013 153.414 29.24C153.414 29.5387 153.414 29.8373 153.414 30.136C153.414 30.4347 153.435 30.7547 153.478 31.096C153.606 31.992 154.054 32.8027 154.822 33.528L155.078 33.592C155.675 33.2507 156.081 32.9093 156.294 32.568C156.55 32.2267 156.891 31.8 157.318 31.288C157.318 31.288 157.361 31.2667 157.446 31.224C157.531 31.1387 157.595 31.096 157.638 31.096C157.809 31.096 157.894 31.1813 157.894 31.352V31.416C157.894 31.5867 157.873 31.7573 157.83 31.928C157.787 32.056 157.745 32.2267 157.702 32.44C157.659 32.952 157.403 33.6133 156.934 34.424C156.507 35.2347 155.889 35.64 155.078 35.64ZM171.379 40.504C170.611 40.504 169.864 40.376 169.139 40.12C168.414 39.9067 167.88 39.4587 167.539 38.776C167.411 38.52 167.283 38.1787 167.155 37.752C167.027 37.3253 166.963 36.9627 166.963 36.664V36.216C166.963 36.0027 166.963 35.7893 166.963 35.576C166.963 35.4053 166.984 35.2347 167.027 35.064C167.198 34.424 167.411 33.6133 167.667 32.632C167.923 31.6507 168.222 30.8827 168.563 30.328H168.435L168.371 30.072L168.627 29.816C168.755 29.7307 168.862 29.624 168.947 29.496H168.755L168.691 29.368C168.52 29.4533 168.456 29.6027 168.499 29.816C168.2 29.9013 167.923 30.1787 167.667 30.648C167.454 31.0747 167.24 31.3307 167.027 31.416L167.155 31.608H166.835L166.515 31.8C166.43 31.8853 166.387 31.9493 166.387 31.992L166.323 32.056C166.195 32.184 166.067 32.248 165.939 32.248C165.555 32.9307 164.872 33.6347 163.891 34.36C162.952 35.0853 162.056 35.448 161.203 35.448C160.819 35.448 160.478 35.384 160.179 35.256C159.88 35.1707 159.624 35.064 159.411 34.936C159.283 34.8507 159.112 34.7653 158.899 34.68C158.728 34.552 158.558 34.4667 158.387 34.424L158.195 34.36C158.024 33.8907 157.832 33.6133 157.619 33.528C157.363 33.4 157.192 32.9947 157.107 32.312L157.043 31.736L157.107 31.48C157.107 31.3093 157.171 31.0747 157.299 30.776C157.384 30.4347 157.512 30.2213 157.683 30.136C157.683 29.624 157.854 29.0693 158.195 28.472C158.536 27.8747 158.92 27.2987 159.347 26.744C159.774 26.1467 160.136 25.6773 160.435 25.336C161.16 24.5253 161.843 23.8 162.483 23.16C163.123 22.52 163.955 21.9227 164.979 21.368V21.432C165.192 21.3467 165.384 21.2613 165.555 21.176C165.768 21.0907 165.982 21.048 166.195 21.048C166.366 20.9627 166.515 20.92 166.643 20.92C166.899 20.92 167.326 21.0693 167.923 21.368C168.52 21.624 169.075 21.944 169.587 22.328C170.142 22.6693 170.419 23.0107 170.419 23.352C170.419 23.3947 170.419 23.544 170.419 23.8C170.419 24.0133 170.376 24.1413 170.291 24.184C170.163 24.3547 170.035 24.4613 169.907 24.504C169.822 24.5467 169.736 24.6747 169.651 24.888C169.608 25.016 169.502 25.208 169.331 25.464C169.203 25.72 169.032 25.848 168.819 25.848H168.691C168.648 25.7627 168.627 25.6133 168.627 25.4C168.67 25.1867 168.691 25.08 168.691 25.08C168.819 24.952 168.883 24.7387 168.883 24.44C168.883 24.1413 168.798 23.864 168.627 23.608C168.456 23.3093 168.222 23.16 167.923 23.16C167.582 23.16 167.112 23.352 166.515 23.736C165.96 24.0773 165.512 24.3547 165.171 24.568C163.934 25.2933 162.867 26.296 161.971 27.576C161.118 28.856 160.456 30.1787 159.987 31.544C159.816 31.9707 159.731 32.4827 159.731 33.08C159.731 33.3787 159.774 33.6773 159.859 33.976C159.987 34.232 160.158 34.36 160.371 34.36C161.054 34.36 161.886 33.9547 162.867 33.144C163.891 32.2907 164.936 31.288 166.003 30.136C167.07 28.9413 168.051 27.7893 168.947 26.68C169.843 25.5707 170.504 24.7387 170.931 24.184C171.144 23.8853 171.422 23.4587 171.763 22.904C172.104 22.3493 172.424 21.7733 172.723 21.176C173.064 20.5787 173.384 20.0027 173.683 19.448C173.982 18.8507 174.238 18.4027 174.451 18.104C174.536 17.9333 174.664 17.7627 174.835 17.592C175.048 17.3787 175.155 17.1867 175.155 17.016C175.24 16.9307 175.347 16.7173 175.475 16.376C175.56 16.2053 175.646 16.0133 175.731 15.8C175.859 15.5867 175.966 15.352 176.051 15.096C176.264 14.6267 176.478 14.1787 176.691 13.752C176.904 13.2827 177.075 12.9627 177.203 12.792C177.416 12.536 177.566 12.2587 177.651 11.96C177.779 11.6613 177.992 11.384 178.291 11.128L178.547 10.936L178.611 10.488C178.611 10.4027 178.739 10.1467 178.995 9.72C179.294 9.29333 179.528 8.99467 179.699 8.824L179.635 8.696C179.934 8.52533 180.168 8.312 180.339 8.056C180.552 7.8 180.766 7.544 180.979 7.288C181.192 7.032 181.448 6.776 181.747 6.52C182.046 6.22133 182.387 5.98667 182.771 5.816C183.027 5.85867 183.496 6.05067 184.179 6.392C184.862 6.69066 185.352 6.92533 185.651 7.096V7.224C185.907 7.48 186.035 7.736 186.035 7.992C186.035 8.20533 185.886 8.504 185.587 8.888C185.502 9.05867 185.395 9.22933 185.267 9.4C185.139 9.528 185.032 9.63467 184.947 9.72L184.115 10.808C183.816 11.2347 183.432 11.64 182.963 12.024C182.536 12.3653 182.131 12.7067 181.747 13.048C181.448 13.304 181.171 13.5387 180.915 13.752C180.702 13.9653 180.552 14.136 180.467 14.264L179.699 15.032C179.443 15.288 179.208 15.5653 178.995 15.864C178.824 16.1627 178.611 16.4613 178.355 16.76C177.8 17.3573 177.288 17.9973 176.819 18.68C176.35 19.32 175.902 19.9813 175.475 20.664C175.262 21.048 175.027 21.432 174.771 21.816C174.558 22.1573 174.302 22.4987 174.003 22.84L173.875 23.096L173.683 23.544C173.555 23.8853 173.384 24.12 173.171 24.248C173.128 24.4187 173.043 24.632 172.915 24.888C172.83 25.1013 172.723 25.336 172.595 25.592C172.424 25.8907 172.275 26.168 172.147 26.424C172.019 26.68 171.912 26.8933 171.827 27.064C171.742 27.32 171.656 27.6187 171.571 27.96C171.528 28.3013 171.4 28.5573 171.187 28.728C171.187 28.9413 171.123 29.1333 170.995 29.304C170.867 29.432 170.76 29.5813 170.675 29.752C170.419 30.3493 170.206 31.1173 170.035 32.056C169.864 32.9947 169.758 33.9547 169.715 34.936C169.672 35.8747 169.672 36.6853 169.715 37.368C169.758 37.752 169.843 38.136 169.971 38.52C170.099 38.9467 170.334 39.2667 170.675 39.48C170.718 39.48 170.782 39.4587 170.867 39.416L170.931 39.48L172.019 39.096C172.232 39.0107 172.403 38.8613 172.531 38.648C172.659 38.4347 172.915 38.328 173.299 38.328L173.491 38.456L173.235 39.48C173.192 39.736 172.936 39.9707 172.467 40.184C171.998 40.3973 171.635 40.504 171.379 40.504ZM170.975 54.584C169.909 54.584 169.162 54.2213 168.735 53.496C168.309 52.8133 168.095 52.0667 168.095 51.256C168.095 50.4027 168.245 49.5707 168.543 48.76C168.842 47.9493 169.205 47.2027 169.631 46.52C169.973 45.9227 170.335 45.304 170.719 44.664C171.061 44.024 171.445 43.4267 171.871 42.872C172.895 41.464 174.218 39.992 175.84 38.456C177.504 36.9627 179.061 35.7253 180.512 34.744C181.237 34.2747 182.112 33.784 183.135 33.272C184.202 32.7173 185.141 32.2693 185.952 31.928C186.762 31.544 187.168 31.352 187.168 31.352C187.552 31.224 187.936 31.032 188.32 30.776C188.746 30.5627 189.066 30.456 189.28 30.456C189.322 30.4133 189.365 30.3707 189.408 30.328C189.45 30.2853 189.493 30.2427 189.536 30.2C189.834 29.8587 190.026 29.3467 190.112 28.664C190.197 27.9813 190.325 27.4267 190.496 27C190.581 26.7867 190.645 26.6373 190.688 26.552C190.773 26.424 190.816 26.232 190.816 25.976V25.592C190.816 25.3787 190.837 25.1867 190.88 25.016C190.922 24.8453 190.965 24.6747 191.008 24.504C191.05 24.376 191.072 24.0987 191.072 23.672C190.773 23.7573 190.517 23.928 190.304 24.184C190.133 24.44 189.941 24.6747 189.728 24.888C189.344 25.2293 188.981 25.6133 188.64 26.04C188.341 26.4667 188 26.8507 187.616 27.192C187.018 27.7467 186.208 28.5147 185.184 29.496C184.16 30.4773 183.093 31.352 181.984 32.12C180.874 32.888 179.893 33.272 179.04 33.272C178.485 33.272 177.866 33.0587 177.184 32.632C176.501 32.2053 176.032 31.7787 175.776 31.352V31.224C175.776 31.096 175.754 30.968 175.712 30.84C175.669 30.6693 175.648 30.52 175.648 30.392C175.648 29.5813 175.84 28.6853 176.224 27.704C176.607 26.7227 177.056 25.8053 177.568 24.952C178.08 24.0987 178.549 23.48 178.976 23.096L179.168 22.84C179.338 22.6267 179.488 22.4347 179.616 22.264C179.786 22.0933 179.957 21.9227 180.128 21.752C180.469 21.368 180.81 21.048 181.152 20.792C181.536 20.536 181.962 20.408 182.432 20.408C182.602 20.408 182.965 20.5147 183.52 20.728C184.074 20.9413 184.608 21.176 185.12 21.432C185.632 21.6453 185.888 21.8373 185.888 22.008C185.93 22.1787 185.845 22.264 185.632 22.264H185.44L185.312 22.2C185.269 22.2 185.226 22.2 185.184 22.2C185.141 22.1573 185.077 22.136 184.992 22.136C184.565 22.136 183.968 22.4987 183.2 23.224C182.474 23.9067 181.728 24.7813 180.96 25.848C180.192 26.872 179.552 27.8747 179.04 28.856C178.528 29.7947 178.272 30.52 178.272 31.032C178.272 31.2453 178.357 31.352 178.528 31.352C178.954 31.352 179.402 31.2027 179.872 30.904C180.384 30.6053 180.81 30.3493 181.152 30.136H181.28C183.2 28.728 184.906 27.3413 186.4 25.976C187.21 25.2507 188.021 24.5253 188.832 23.8C189.642 23.0747 190.453 22.3067 191.264 21.496L191.648 21.112L192.032 20.664C192.288 20.3653 192.586 20.088 192.928 19.832C193.312 19.9173 193.866 20.0453 194.592 20.216C195.36 20.3867 195.765 20.7707 195.808 21.368C195.808 21.5813 195.765 21.7947 195.68 22.008C195.637 22.1787 195.594 22.3707 195.552 22.584C195.509 23.0107 195.445 23.4373 195.36 23.864C195.274 24.2907 195.189 24.7173 195.104 25.144C195.061 25.4 194.976 25.656 194.848 25.912C194.762 26.168 194.677 26.424 194.592 26.68C194.506 26.9787 194.442 27.2987 194.4 27.64C194.4 27.9813 194.336 28.3227 194.208 28.664C194.165 28.792 194.058 29.0267 193.888 29.368C193.717 29.6667 193.632 29.88 193.632 30.008C193.632 30.0507 193.717 30.072 193.888 30.072C194.016 30.072 194.122 30.072 194.208 30.072C194.336 30.0293 194.421 30.008 194.464 30.008C195.488 30.008 196.405 30.3493 197.216 31.032C197.301 31.0747 197.344 31.1173 197.344 31.16C197.386 31.16 197.429 31.16 197.472 31.16V31.288C197.472 31.5013 197.344 31.672 197.088 31.8C196.832 31.928 196.661 31.8427 196.576 31.544C196.533 31.416 196.426 31.352 196.256 31.352C196.085 31.3093 195.936 31.288 195.808 31.288C195.381 31.288 194.784 31.4373 194.016 31.736C193.29 31.992 192.949 32.376 192.992 32.888C192.778 33.016 192.458 33.3787 192.032 33.976C191.648 34.5733 191.434 34.9787 191.392 35.192C191.349 35.3627 191.328 35.5333 191.328 35.704C191.328 35.8747 191.242 36.0453 191.072 36.216C190.901 36.3867 190.752 36.5573 190.624 36.728C190.538 36.8987 190.496 37.1547 190.496 37.496C190.24 37.5813 189.962 37.816 189.664 38.2C189.365 38.584 189.237 38.904 189.28 39.16L189.088 39.224L189.216 39.48C188.874 39.608 188.704 39.7787 188.704 39.992C188.448 40.0773 188.234 40.2907 188.064 40.632C187.936 40.9733 187.744 41.2293 187.488 41.4V41.656L186.976 41.912L187.04 42.104C186.869 42.232 186.698 42.36 186.528 42.488C186.4 42.6587 186.272 42.8293 186.144 43C185.973 43.1707 185.824 43.32 185.696 43.448C185.61 43.576 185.525 43.6827 185.44 43.768V44.024C185.312 44.0667 185.248 44.1733 185.248 44.344C185.034 44.3867 184.842 44.4933 184.672 44.664L184.352 44.984L184.416 45.112C184.288 45.1973 184.16 45.2827 184.032 45.368C183.946 45.4533 183.882 45.5813 183.84 45.752H183.648C183.52 46.008 183.306 46.264 183.008 46.52C182.752 46.8187 182.517 47.0747 182.304 47.288L181.216 48.632C180.874 48.9307 180.49 49.208 180.064 49.464C179.68 49.72 179.317 50.0187 178.976 50.36C178.848 50.4453 178.72 50.552 178.592 50.68C178.506 50.808 178.4 50.936 178.272 51.064C178.101 51.2347 177.866 51.384 177.568 51.512C177.312 51.6827 177.077 51.8747 176.864 52.088C176.181 52.5573 175.285 53.0907 174.175 53.688C173.023 54.2853 171.957 54.584 170.975 54.584ZM172.576 52.6C172.789 52.5147 173.109 52.3653 173.535 52.152C173.962 51.9813 174.346 51.7893 174.688 51.576C175.072 51.3627 175.264 51.192 175.264 51.064C175.818 50.7227 176.309 50.3173 176.736 49.848C177.205 49.4213 177.653 48.9947 178.08 48.568C178.549 48.1413 179.018 47.7147 179.488 47.288C179.957 46.8613 180.384 46.4133 180.768 45.944C181.024 45.6027 181.258 45.2613 181.472 44.92C181.728 44.5787 181.984 44.2587 182.24 43.96C182.581 43.4907 182.944 43.0213 183.328 42.552C183.754 42.1253 184.138 41.6773 184.48 41.208C184.864 40.7387 185.205 40.2267 185.504 39.672C185.845 39.1173 186.186 38.584 186.528 38.072C186.741 37.7307 186.976 37.368 187.232 36.984C187.53 36.6 187.765 36.216 187.936 35.832C188.021 35.704 188.085 35.5547 188.128 35.384C188.213 35.256 188.298 35.1067 188.384 34.936C188.554 34.6373 188.789 34.1893 189.088 33.592C189.429 32.952 189.6 32.4827 189.6 32.184C189.088 32.44 188.49 32.696 187.808 32.952C187.466 33.1227 187.125 33.2933 186.784 33.464C186.485 33.592 186.336 33.6987 186.336 33.784C186.122 33.8267 185.61 34.04 184.8 34.424C184.032 34.808 183.264 35.2133 182.496 35.64C181.728 36.0667 181.237 36.3867 181.024 36.6C180.213 37.1973 179.424 37.8373 178.656 38.52C177.93 39.2027 177.205 39.8853 176.48 40.568C176.309 40.7387 176.16 40.9093 176.032 41.08C175.904 41.2507 175.776 41.4427 175.648 41.656C175.605 41.7413 175.541 41.8053 175.456 41.848C175.413 41.9333 175.37 42.0187 175.328 42.104C175.242 42.1893 175.072 42.424 174.816 42.808C174.559 43.192 174.325 43.576 174.111 43.96C173.898 44.344 173.77 44.6 173.727 44.728C173.343 45.112 172.895 45.752 172.383 46.648C171.871 47.544 171.509 48.2693 171.295 48.824L170.847 49.848C170.719 50.0187 170.655 50.3173 170.655 50.744C170.613 51.1707 170.591 51.512 170.591 51.768C170.634 52.152 170.783 52.3867 171.039 52.472C171.295 52.6 171.807 52.6427 172.576 52.6Z" fill="white"/>
</svg>
