<svg width="30" height="30" viewBox="0 0 30 30" fill="none" xmlns="http://www.w3.org/2000/svg">
<path d="M10.7251 3.82968L27.272 16.1344C26.3485 17.3812 26.6063 19.1437 27.8532 20.0719L23.3767 26.0859C22.1298 25.1625 20.3673 25.4203 19.4438 26.6672L2.89229 14.3578C3.82041 13.1109 3.55791 11.3484 2.31104 10.425L6.7876 4.40624C8.03447 5.33437 9.79228 5.07187 10.7251 3.82968Z" fill="#65BC6A"/>
<path d="M29.1562 17.5312C29.3624 17.6859 29.4046 17.9812 29.2499 18.1875L27.8531 20.0719C26.6062 19.1437 26.3484 17.3812 27.2718 16.1344L29.1562 17.5312ZM23.3765 26.0859L21.9796 27.9703C21.8249 28.1766 21.5296 28.2187 21.3234 28.0641L19.4437 26.6672C20.3671 25.4203 22.1296 25.1625 23.3765 26.0859ZM17.6015 11.8594C19.4671 13.2516 19.8562 15.8953 18.4687 17.7656C17.0765 19.6359 14.4327 20.0203 12.5671 18.6328C10.6968 17.2406 10.3077 14.5969 11.6952 12.7312C13.0874 10.8609 15.7312 10.4719 17.6015 11.8594Z" fill="#398F3E"/>
<path d="M13.1246 17.8795C13.2085 17.9419 13.3069 17.9724 13.404 17.9724C13.5474 17.9724 13.6885 17.9072 13.7804 17.7834L14.1783 17.2481C14.2102 17.2528 14.2402 17.2617 14.2725 17.2641C14.3068 17.2664 14.341 17.2678 14.3747 17.2678C15.1046 17.2678 15.7229 16.7016 15.7768 15.9628C15.7946 15.7163 15.7472 15.4692 15.6394 15.2475C15.5902 15.1463 15.5288 15.0511 15.4566 14.9644C15.4299 14.9292 15.3985 14.8974 15.3624 14.8706C15.2621 14.7956 15.1965 14.6864 15.1782 14.5627C15.1599 14.4389 15.1908 14.3152 15.2658 14.2149C15.3404 14.1145 15.45 14.0489 15.5738 14.0306C15.6985 14.0128 15.8213 14.0438 15.9221 14.1188C15.9891 14.1684 16.0397 14.2327 16.0725 14.3081C16.089 14.3461 16.1002 14.3864 16.1063 14.4267C16.1443 14.6831 16.3833 14.8589 16.6383 14.8224C16.8943 14.7844 17.0715 14.5467 17.034 14.2903C17.0161 14.1689 16.9824 14.0503 16.9336 13.9374C16.8999 13.8591 16.8507 13.7897 16.8033 13.7194L17.1375 13.2699C17.2922 13.0622 17.2491 12.7688 17.041 12.6141C16.8338 12.4599 16.5399 12.5025 16.3852 12.7106L16.0547 13.155C15.8569 13.0936 15.6479 13.072 15.4379 13.1034C15.0661 13.1583 14.738 13.3542 14.514 13.6556C14.0649 14.2599 14.1736 15.1092 14.7502 15.5817C14.768 15.6056 14.7835 15.6309 14.7966 15.6577C14.8327 15.7322 14.8482 15.8124 14.8421 15.8958C14.8233 16.1536 14.5918 16.3486 14.341 16.3294C14.2158 16.3205 14.1019 16.2633 14.0204 16.1686C13.9383 16.0739 13.898 15.953 13.9074 15.8283C13.9261 15.57 13.7316 15.3455 13.4738 15.3267C13.2057 15.3094 12.991 15.5025 12.9722 15.7603C12.945 16.1349 13.0655 16.4977 13.3116 16.7817C13.32 16.7916 13.3304 16.7981 13.3388 16.8075L13.0294 17.2238C12.8733 17.4319 12.9165 17.7253 13.1246 17.8795ZM2.89224 14.3578L15.9329 24.0563H15.9282L3.18286 20.0016C3.6563 18.5203 2.83599 16.9406 1.35474 16.4672L1.87505 14.8313L2.18911 13.8375L2.89224 14.3578Z" fill="#65BC6A"/>
<path d="M15.9281 24.0562L11.3484 22.5984L1.95469 15.6141L1.6875 15.4172L1.875 14.8312L2.18906 13.8375L2.89219 14.3578L15.9281 24.0562Z" fill="#398F3E"/>
<path d="M16.9922 24.8438H4.6875C4.6875 23.2922 3.42656 22.0313 1.875 22.0313V19.5844L3.18281 20.0016L15.9281 24.0563H15.9328L16.9922 24.8438Z" fill="#65BC6A"/>
<path d="M16.9922 24.8438H13.9828L3.18281 21.4078L1.875 20.9906V19.5844L3.18281 20.0016L15.9281 24.0563H15.9328L16.9922 24.8438Z" fill="#29752B"/>
<path d="M28.1251 22.0312V24.375C28.1251 24.6328 27.9142 24.8438 27.6563 24.8438H26.2407L26.372 24.4266L27.0704 22.2375C27.3938 22.1016 27.7501 22.0312 28.1251 22.0312Z" fill="#236823"/>
<path d="M28.125 19.7016V22.0313C27.75 22.0313 27.3938 22.1016 27.0703 22.2375L27.6891 20.2922V20.2875L27.8531 20.0719L28.125 19.7016Z" fill="#29752B"/>
<path d="M27.689 20.2922L27.0702 22.2375L26.3718 24.4265C26.039 24.3187 25.6968 24.2812 25.364 24.3C25.1015 24.314 24.8437 24.3656 24.5952 24.45L27.689 20.2922Z" fill="#65BC6A"/>
<path d="M26.3719 24.4266L26.2407 24.8438L25.6594 26.6625C25.5844 26.9063 25.3172 27.0422 25.0735 26.9672L23.175 26.3625L23.3766 26.0859L24.5954 24.45C24.8438 24.3656 25.1016 24.3141 25.3641 24.3C25.6969 24.2812 26.0391 24.3188 26.3719 24.4266ZM28.125 12.1875V14.1656L27.1922 13.8656L25.9219 13.4625H25.9172C25.5375 12.9844 25.3125 12.3797 25.3125 11.7188H27.6563C27.9141 11.7188 28.125 11.9297 28.125 12.1875Z" fill="#398F3E"/>
<path d="M25.9171 13.4625L22.0124 12.2203H22.0077L21.3374 11.7188H25.3124C25.3124 12.3797 25.5374 12.9844 25.9171 13.4625Z" fill="#65BC6A"/>
<path d="M5.00161 6.80624L4.00317 8.15156V8.14687L4.4813 6.64218L5.00161 6.80624Z" fill="#398F3E"/>
<path d="M4.68752 24.8437H2.34377C2.08595 24.8437 1.87502 24.6328 1.87502 24.375V22.0312C3.42658 22.0312 4.68752 23.2922 4.68752 24.8437ZM1.3547 16.4672C2.83595 16.9406 3.65627 18.5203 3.18283 20.0015L1.87502 19.5844L0.94689 19.289C0.70314 19.2141 0.567203 18.9469 0.642203 18.7031L1.3547 16.4672ZM10.725 3.82499V3.82967C9.7922 5.07186 8.03439 5.33436 6.78752 4.40624L8.18908 2.52655C8.33908 2.31561 8.63439 2.27342 8.84064 2.42811L10.725 3.82499ZM2.31095 10.425C3.55783 11.3484 3.82033 13.1109 2.8922 14.3578L1.01252 12.9609C0.801578 12.8062 0.75939 12.5109 0.914078 12.3047L2.31095 10.425Z" fill="#398F3E"/>
<path d="M27.1781 13.9078C26.9765 14.4562 26.9437 15.3328 27.0703 15.9797L22.0125 12.2203L25.9171 13.4625H25.9218L27.1921 13.8656L27.1781 13.9078Z" fill="#65BC6A"/>
<path d="M27.0702 15.9797C26.9437 15.3328 26.9765 14.4563 27.178 13.9078L27.1921 13.8656L28.1249 14.1656L29.053 14.4609C29.2968 14.5359 29.4327 14.8031 29.3577 15.0469L28.678 17.175L27.2718 16.1344L27.0702 15.9797ZM27.689 20.2922L27.0702 22.2375L26.3718 24.4266C26.039 24.3188 25.6968 24.2813 25.364 24.3C25.1015 24.3141 24.8437 24.3656 24.5952 24.45L27.689 20.2922Z" fill="#398F3E"/>
<path d="M25.3641 24.3C25.1016 24.3141 24.8438 24.3656 24.5954 24.45L23.7844 25.5422L23.3766 26.0859L23.175 26.3625L24.6891 26.8453L25.0735 26.9672C25.3172 27.0422 25.5844 26.9063 25.6594 26.6625L26.2407 24.8438L26.2876 24.6938L26.3719 24.4266C26.0391 24.3188 25.6969 24.2813 25.3641 24.3Z" fill="#29752B"/>
<path d="M26.4093 13.6172L25.9218 13.4625H25.9171C25.814 13.3359 25.7249 13.2 25.6499 13.0547L26.4093 13.6172Z" fill="#236823"/>
<path d="M25.9171 13.4625L22.0124 12.2203H22.0077L21.3374 11.7188H23.8546L25.6499 13.0547C25.7249 13.2 25.814 13.3359 25.9171 13.4625Z" fill="#29752B"/>
<path d="M27.014 14.6812C27.0375 14.4891 27.0656 14.3016 27.1078 14.1375L26.4093 13.6172L25.9218 13.4625H25.9171L22.0125 12.2203L26.7281 15.7266L27.0703 15.9797C26.9953 15.5906 26.9765 15.1172 27.014 14.6812Z" fill="#398F3E"/>
<path d="M28.636 17.1422L28.7297 17.0156L28.6782 17.175L28.636 17.1422Z" fill="#398F3E"/>
<path d="M29.1563 15.6563L27.2719 14.2594L27.1079 14.1375C27.0657 14.3016 27.0375 14.4891 27.0141 14.6813C26.9766 15.1172 26.9954 15.5906 27.0704 15.9797L27.2719 16.1344L28.636 17.1422L28.7297 17.0156L29.161 15.6609L29.1563 15.6563Z" fill="#29752B"/>
</svg>
