<svg width="202" height="142" viewBox="0 0 202 142" fill="none" xmlns="http://www.w3.org/2000/svg">
<path d="M67.6587 107.059L63.6195 93.9309L61.0839 85.6893C59.4111 86.3553 57.5367 87.0801 55.6287 87.8085C56.1759 88.6997 56.7223 89.5917 57.2679 90.4845C59.6991 94.4517 62.1299 98.4197 64.5603 102.388L67.8975 107.834C67.8171 107.576 67.7403 107.317 67.6587 107.059ZM127.681 43.7745L127.561 43.9629C127.611 43.9041 127.661 43.8429 127.711 43.7901L127.681 43.7745ZM156.889 59.8053C155.635 61.9257 154.369 63.7017 153.361 64.7745C149.761 68.6145 148.201 64.8945 148.201 64.8945C142.801 68.4945 143.161 63.4545 143.161 63.4545C142.887 64.0074 142.522 64.5107 142.081 64.9437C141.79 65.225 141.447 65.4461 141.07 65.5941C139.672 66.5697 137.323 68.5125 137.321 70.5633C136.162 70.7623 135.017 71.0365 133.894 71.3841L133.809 71.3121C133.809 71.3121 131.604 67.1877 137.146 64.1493C136.506 63.0237 136.569 61.6521 136.569 61.6521C136.569 61.6521 133.569 64.8921 131.769 61.1601C130.78 59.1093 132.834 52.9005 134.889 47.7201L132.234 46.2633C130.239 47.6229 130.717 48.2085 130.27 49.6485C129.822 51.0885 126.49 53.1825 125.95 48.6885C125.832 47.6914 125.99 46.6809 126.407 45.7677L113.041 66.5133C113.041 66.5133 105.841 47.8545 99.3615 46.6545C96.3207 46.0917 90.9207 45.0525 86.0487 44.1081L85.4607 43.9881C80.1975 42.9681 75.6987 42.0885 75.6987 42.0885L75.3639 43.7613L72.7239 56.9685L72.3939 56.9217L60.9639 55.2885L60.0039 40.1685C60.0039 40.1685 42.4839 40.2261 37.6839 44.9973C32.8839 49.7685 8.88389 74.7285 2.88389 93.0885C-3.11611 111.448 1.68389 112.648 6.96389 115.288C12.2439 117.928 24.4839 115.288 32.4039 109.048V116.306H97.9239L101.284 89.3685C101.284 89.3685 100.804 107.368 119.044 104.488C137.284 101.608 159.364 61.1565 159.364 61.1565L156.889 59.8053ZM55.6203 107.974C54.9201 107.974 54.2357 107.767 53.6536 107.378C53.0714 106.989 52.6177 106.436 52.3498 105.789C52.0818 105.142 52.0117 104.431 52.1483 103.744C52.2849 103.057 52.6221 102.426 53.1171 101.931C53.6122 101.436 54.243 101.099 54.9297 100.962C55.6164 100.826 56.3281 100.896 56.975 101.164C57.6218 101.432 58.1747 101.886 58.5637 102.468C58.9527 103.05 59.1603 103.734 59.1603 104.434C59.1603 105.373 58.7873 106.274 58.1235 106.938C57.4596 107.601 56.5592 107.974 55.6203 107.974ZM77.6403 70.2945C78.4803 72.3345 73.4403 74.6145 73.4403 74.6145C73.4403 74.6145 75.8403 74.3745 76.2003 75.9345C76.5027 77.2449 72.9075 80.1669 67.7631 82.7745C67.5399 82.8889 67.3135 83.0017 67.0839 83.1129C66.3111 83.4909 65.5071 83.8593 64.6839 84.2145C63.8151 84.5865 62.7831 85.0113 61.6431 85.4673L61.0863 85.6893C59.4135 86.3553 57.5391 87.0801 55.6311 87.8085L55.0635 88.0245C48.3435 90.5793 41.4039 93.0945 41.4039 93.0945L34.3239 77.0145C34.3239 77.0145 46.2519 72.2721 50.4519 66.5121C54.6519 60.7521 58.6671 59.5641 59.0439 63.3345C59.2839 65.7345 54.6039 69.5745 54.6039 69.5745C69.3015 64.1589 69.2439 61.5945 71.3907 61.8777C71.5888 61.9062 71.7846 61.9495 71.9763 62.0073L72.0039 62.0145C74.8431 62.8425 73.0179 65.0697 72.9639 65.1345C73.0575 65.0913 77.5311 62.9985 78.3639 65.1345C79.1439 67.1421 75.6759 68.8389 75.1815 69.0693C75.4815 68.9445 76.8939 68.4789 77.6415 70.2945H77.6403Z" fill="#EB7E92"/>
<path d="M135.501 46.9787C136.442 44.6579 137.429 42.3515 138.501 40.0859C138.523 40.0461 138.537 40.0017 138.539 39.9561C138.542 39.9105 138.535 39.8649 138.518 39.8225C138.501 39.7802 138.474 39.7423 138.44 39.7116C138.406 39.681 138.366 39.6584 138.322 39.6455C136.035 39.1523 133.492 39.6023 131.355 40.5155L131.795 40.6943C131.789 40.6511 131.774 40.7627 131.795 40.6559C131.796 40.5508 131.787 40.4458 131.767 40.3427C131.741 39.9877 131.733 39.6316 131.744 39.2759C131.767 38.1844 131.975 37.1048 132.358 36.0827C133.654 32.7059 137.085 31.2827 140.518 31.2311C144.791 31.1603 149.056 32.7911 152.717 34.8803C154.526 35.8997 156.223 37.1063 157.78 38.4803C159.013 39.5831 160.197 40.8227 160.996 42.2831C162.091 44.2835 161.775 46.7003 161.27 48.8303C160.574 51.7667 159.357 54.5747 157.975 57.2471C157.797 57.5891 158.315 57.8939 158.493 57.5495C159.784 55.0535 160.927 52.4447 161.661 49.7255C162.217 47.6723 162.663 45.3227 162.049 43.2299C161.582 41.6399 160.426 40.2563 159.289 39.0911C157.849 37.6103 156.184 36.3311 154.444 35.2211C150.655 32.7935 146.207 30.9107 141.67 30.6515C138.077 30.4463 134.123 31.5023 132.277 34.8515C131.296 36.6884 130.928 38.7907 131.227 40.8515C131.259 41.0639 131.511 41.0915 131.667 41.0303C133.501 40.2467 136.064 39.7655 138.171 40.2203L137.992 39.7799C136.899 42.0911 135.892 44.4467 134.932 46.8155C134.787 47.1755 135.368 47.3291 135.511 46.9751L135.501 46.9787Z" fill="#424242"/>
<path d="M24.7382 48.5085C19.793 53.7249 15.1382 59.3553 11.1218 65.3145C9.61219 67.5525 8.1926 69.8673 7.049 72.3153C6.887 72.6633 7.409 72.9681 7.5674 72.6177C9.6482 68.1621 12.5642 64.0977 15.5582 60.2157C18.0782 56.9517 20.7398 53.7969 23.5022 50.7357C24.0506 50.1285 24.6002 49.5237 25.163 48.9357C25.4282 48.6561 25.0046 48.2301 24.7382 48.5109V48.5085Z" fill="#424242"/>
<path d="M162.993 66.3012C162.294 67.038 161.848 68.0868 161.606 69.0612C160.969 71.6124 161.752 74.244 163.072 76.446C164.217 78.3564 165.747 80.0256 167.392 81.5184C168.99 82.9716 170.722 84.3864 172.672 85.3356C174.458 86.202 177.01 86.8416 178.531 85.1328C179.713 83.8044 179.703 81.7584 179.072 80.184C178.315 78.2964 176.64 76.9776 174.598 76.8C172.005 76.5732 169.029 77.88 168.753 80.7228C168.446 83.9016 170.811 87.054 172.926 89.16C176.061 92.28 180.264 94.4124 184.664 94.9812C187.304 95.322 190.285 95.058 192.571 93.5772C192.699 93.4957 192.822 93.4071 192.94 93.312C193.239 93.072 192.813 92.6448 192.516 92.8872C192.498 92.9016 192.572 92.8524 192.489 92.9064C192.406 92.9604 192.319 93.0264 192.231 93.0804C191.947 93.26 191.651 93.4203 191.346 93.5604C190.202 94.0733 188.978 94.3812 187.728 94.47C183.6 94.8048 179.295 93.2784 175.948 90.9216C173.248 89.0208 170.629 86.2788 169.638 83.0556C169.285 81.9096 169.14 80.5872 169.712 79.4856C170.33 78.2976 171.614 77.7396 172.872 77.502C174.872 77.1252 176.892 77.7204 178.032 79.4808C178.872 80.7804 179.224 82.6092 178.531 84.0504C177.691 85.7964 175.701 85.824 174.076 85.2756C172.489 84.7404 171.049 83.766 169.743 82.7364C167.908 81.2964 166.166 79.6716 164.733 77.8164C163.083 75.6828 161.757 73.0548 161.997 70.2852C162.102 69.0768 162.585 67.7544 163.29 66.8688C163.328 66.8208 163.368 66.7728 163.41 66.7272C163.676 66.4476 163.252 66.0228 162.985 66.3024L162.993 66.3012Z" fill="#424242"/>
<path d="M70.8746 118.401C68.9954 121.862 66.473 125.183 63.5222 127.787C61.469 129.598 58.9094 131.232 56.0822 131.267C54.293 131.292 49.9178 130.5 50.5862 127.798C51.1334 125.585 54.0794 124.893 56.0078 125.278C57.9362 125.663 58.6658 127.262 58.4234 129.108C58.1078 131.514 56.6018 133.727 54.9182 135.401C52.6234 137.657 49.7095 139.18 46.547 139.775C42.5594 140.537 38.3366 140.933 34.2806 140.607C31.5542 140.387 28.7522 139.758 26.4806 138.166C26.0101 137.835 25.5685 137.464 25.1606 137.058C24.8858 136.786 24.461 137.211 24.7358 137.483C26.7218 139.449 29.369 140.483 32.087 140.938C36.0866 141.616 40.2218 141.288 44.2154 140.74C46.2554 140.46 48.245 140.112 50.1506 139.3C51.694 138.645 53.1301 137.762 54.4106 136.679C56.4422 134.96 58.217 132.633 58.8602 130.01C59.2958 128.231 59.117 126.017 57.3002 125.078C55.271 124.025 52.2746 124.541 50.7614 126.266C50.1446 126.969 49.7654 127.91 49.991 128.849C50.2598 129.968 51.2702 130.696 52.271 131.121C55.2146 132.368 58.3538 131.914 61.055 130.33C63.7058 128.77 65.891 126.473 67.775 124.074C69.048 122.464 70.2014 120.763 71.2262 118.984C71.2802 118.889 71.3342 118.794 71.387 118.697C71.5718 118.358 71.0534 118.054 70.8686 118.395L70.8746 118.401Z" fill="#424242"/>
<path d="M58.8805 81.6639C63.0877 80.0787 67.3201 78.2199 71.1121 75.7935C71.4361 75.5859 71.1361 75.0663 70.8097 75.2751C67.0609 77.6751 62.8801 79.5171 58.7209 81.0843C58.3609 81.2187 58.5181 81.8043 58.8805 81.6627V81.6639Z" fill="#424242"/>
<path d="M57.6723 77.3879L71.6595 70.9487L73.6467 70.0343C73.9971 69.8735 73.6923 69.3551 73.3443 69.5159L59.3571 75.9599L57.3699 76.8743C57.0195 77.0351 57.3243 77.5535 57.6723 77.3927V77.3879Z" fill="#424242"/>
<path d="M55.7723 73.7114L69.5831 67.2002L71.5391 66.2774C71.8883 66.113 71.5835 65.5958 71.2367 65.759L57.4259 72.2702L55.4699 73.193C55.1207 73.3574 55.4255 73.8746 55.7723 73.7114Z" fill="#424242"/>
<path d="M156.193 46.6543C154.939 50.8855 153.433 55.1287 151.463 59.0803C150.809 60.3919 150.094 61.7131 149.15 62.8411C148.904 63.1351 149.326 63.5611 149.575 63.2659C151.347 61.1455 152.481 58.4815 153.535 55.9459C154.559 53.4739 155.455 50.9491 156.278 48.4027C156.448 47.8723 156.617 47.3419 156.776 46.8079C156.886 46.4371 156.307 46.2787 156.197 46.6483L156.193 46.6543Z" fill="#424242"/>
<path d="M150.672 43.2948C149.782 47.7535 148.372 52.0924 146.472 56.2224C145.625 58.0967 144.634 59.9022 143.506 61.6224C143.293 61.9452 143.812 62.2464 144.025 61.9248C147.41 56.814 149.527 50.8188 150.938 44.8848C151.051 44.4048 151.161 43.9356 151.255 43.4568C151.328 43.08 150.75 42.918 150.676 43.2972L150.672 43.2948Z" fill="#424242"/>
<path d="M144.591 39.6946C143.669 44.7886 142.191 49.9198 140.117 54.6598C139.298 56.5282 138.355 58.351 137.181 60.0226C136.959 60.3394 137.479 60.6394 137.7 60.325C139.821 57.3046 141.241 53.8078 142.415 50.329C143.375 47.4671 144.176 44.5542 144.815 41.6038C144.942 41.023 145.065 40.4398 145.175 39.8542C145.243 39.4762 144.665 39.3142 144.596 39.6946H144.591Z" fill="#424242"/>
<path d="M185.281 104.255C165.841 96.8149 155.041 84.5749 149.521 77.1349C144.001 69.6949 138.241 70.4149 138.241 70.4149C137.921 70.4629 137.612 70.5133 137.313 70.5661C136.155 70.7652 135.01 71.0394 133.886 71.3869C124.129 74.4529 124.861 81.7261 119.761 89.3749C114.001 98.0149 93.3611 111.455 79.1915 119.375C65.0219 127.295 71.6003 134.532 71.6003 134.532L199.681 119.375C201.601 117.455 204.721 111.695 185.281 104.255ZM191.401 117.016L87.5159 128.511C86.3279 128.641 85.7159 127.128 86.6663 126.4L136.454 88.1293C137.272 87.5002 138.256 87.1228 139.285 87.0431C140.314 86.9634 141.344 87.1849 142.249 87.6805L191.838 114.807C192.058 114.927 192.234 115.115 192.34 115.343C192.446 115.571 192.477 115.826 192.428 116.073C192.379 116.319 192.253 116.543 192.067 116.713C191.882 116.883 191.647 116.989 191.397 117.016H191.401Z" fill="#424242"/>
<path d="M78.7454 20.2859C78.8184 19.7039 78.4057 19.1731 77.8237 19.1002C77.2417 19.0273 76.7108 19.4399 76.6379 20.0219C76.565 20.6039 76.9777 21.1348 77.5597 21.2077C78.1417 21.2806 78.6725 20.8679 78.7454 20.2859Z" fill="#424242"/>
<path d="M89.168 22.6624C89.2409 22.0804 88.8282 21.5495 88.2462 21.4766C87.6643 21.4037 87.1334 21.8164 87.0605 22.3984C86.9876 22.9804 87.4003 23.5112 87.9822 23.5841C88.5642 23.6571 89.0951 23.2444 89.168 22.6624Z" fill="#424242"/>
<path d="M82.0083 25.4317L82.9875 25.5769C83.2707 25.6189 83.6847 25.7617 83.9667 25.7221C84.4467 25.6561 84.4035 25.1521 84.1863 24.8269C84.0567 24.6325 83.8503 24.5581 83.6871 24.4033C83.0247 23.7769 83.5515 23.0221 83.4999 22.2613C83.4723 21.8545 84.0999 21.7597 84.1311 22.1701C84.1469 22.452 84.1231 22.7348 84.0603 23.0101C83.9691 23.4541 83.9211 23.7205 84.2727 24.0517C84.6495 24.4117 84.9375 24.6949 84.9651 25.2517C85.0503 26.9773 82.9251 26.2201 81.9315 26.0725C81.5259 26.0125 81.6039 25.3801 82.0107 25.4401L82.0083 25.4317Z" fill="#424242"/>
<path d="M38.7005 32.5197L61.4513 36.9249L65.9405 21.2697C64.4753 20.9781 63.1397 20.0601 62.5805 18.9693C62.0213 17.8785 60.9953 15.3321 63.6605 14.2173C66.3257 13.1025 67.5461 15.7773 67.5461 15.7773C72.8069 16.2729 81.7901 8.80889 83.4641 7.89209C85.1381 6.97529 87.9257 6.57209 89.4917 9.93209C91.0577 13.2921 92.7161 15.4965 93.3965 16.9197C93.3965 16.9197 92.0537 23.3577 90.5525 25.9089C89.0513 28.4601 86.9525 31.9017 83.5769 34.4289C80.2013 36.9561 76.8149 36.0969 76.8149 36.0969L76.3061 39.7929L90.4517 42.5313L91.0601 37.6797L92.7137 42.9693L103.196 44.9997C103.196 44.9997 104.666 40.1349 101.717 37.9389C98.7689 35.7429 102.896 31.1061 100.055 28.0641C97.2149 25.0221 97.0049 23.2785 96.7553 17.5545C96.5057 11.8305 95.6645 9.10889 93.9125 6.41729C93.9125 6.41729 92.4353 4.01729 85.1129 1.59449C77.7905 -0.82831 71.2205 1.89929 69.4889 3.71969C67.7573 5.54009 66.8021 8.00009 63.8549 8.38289C60.9077 8.76569 54.7085 7.66289 51.9965 13.0185C49.2845 18.3741 52.0085 18.9285 49.5737 22.0605C47.1389 25.1925 39.9629 26.7681 38.7005 32.5197Z" fill="#424242"/>
<path d="M67.5155 26.1103C68.1069 28.1548 69.0138 30.0946 70.2035 31.8595C71.4695 33.7615 73.1747 35.4691 75.2639 36.3619C75.3085 36.3806 75.3567 36.3887 75.4049 36.3857C75.4532 36.3826 75.5 36.3684 75.5419 36.3443C75.5837 36.3201 75.6194 36.2866 75.6461 36.2463C75.6728 36.2061 75.6899 36.1602 75.6959 36.1123C75.7039 36.044 75.6893 35.9751 75.6545 35.9159C75.6196 35.8568 75.5663 35.8107 75.5027 35.7847C73.1519 34.7935 71.3675 32.6839 70.1099 30.5047C69.5287 29.4973 69.028 28.4456 68.6123 27.3595C68.4827 27.0247 68.3603 26.6863 68.2523 26.3443C68.2367 26.2951 68.1683 26.0719 68.1455 26.0023C68.1455 26.0023 68.1455 26.0107 68.1455 26.0167C68.0375 25.6291 67.4051 25.7167 67.5155 26.1103Z" fill="#424242"/>
<path d="M65.9543 18.4333C65.8187 17.3533 65.2487 15.3961 63.8423 16.3405C63.5039 16.5685 63.1103 16.0669 63.4511 15.8377C64.3763 15.2161 65.3315 15.3205 65.9291 16.3021C66.2863 16.9296 66.5097 17.6241 66.5855 18.3421C66.6359 18.7489 66.0059 18.8413 65.9543 18.4333Z" fill="#424242"/>
<path d="M81.5617 28.1457C79.7329 26.7585 76.8685 27.4725 75.1753 28.9857C75.1349 29.0221 75.1049 29.0686 75.0885 29.1205C75.0721 29.1725 75.07 29.2278 75.0822 29.2808C75.0945 29.3339 75.1207 29.3826 75.1582 29.4221C75.1956 29.4616 75.243 29.4903 75.2953 29.5053C76.4953 29.8533 79.5289 30.8541 81.2809 32.5161C81.3152 32.5485 81.3565 32.5726 81.4016 32.5864C81.4467 32.6001 81.4944 32.6032 81.5409 32.5955C81.5875 32.5877 81.6316 32.5692 81.6697 32.5414C81.7079 32.5137 81.7391 32.4775 81.7609 32.4357C82.2109 31.5657 83.1277 29.3337 81.5617 28.1457ZM81.6313 30.7965C81.6259 30.8151 81.6153 30.8317 81.6008 30.8446C81.5863 30.8574 81.5684 30.8658 81.5493 30.8688C81.5301 30.8718 81.5105 30.8693 81.4928 30.8616C81.475 30.8539 81.4598 30.8413 81.4489 30.8253C80.3857 29.2317 78.0145 28.7145 77.1445 28.5753C77.123 28.5717 77.1031 28.5614 77.0879 28.5458C77.0727 28.5301 77.0629 28.51 77.0599 28.4884C77.057 28.4668 77.0611 28.4448 77.0715 28.4257C77.082 28.4065 77.0983 28.3912 77.1181 28.3821C78.2425 27.8649 79.3717 27.7269 80.7889 28.3725C82.0201 28.9353 81.7801 30.2781 81.6301 30.7977L81.6313 30.7965Z" fill="#424242"/>
<path d="M87.4207 16.8782C87.4795 18.473 88.7971 19.655 90.2215 20.1242C90.5887 20.2442 90.7471 19.6658 90.3811 19.5458C89.2207 19.1642 88.0699 18.1946 88.0207 16.8782C88.0063 16.493 87.4063 16.4918 87.4207 16.8782Z" fill="#424242"/>
<path d="M79.6023 14.8804C78.9915 15.7084 77.5323 15.8884 76.4607 15.6424C76.0851 15.556 75.9243 16.1344 76.3011 16.2208C77.6211 16.5232 79.2531 16.3576 80.1195 15.1828C80.3487 14.872 79.8279 14.572 79.6011 14.8804H79.6023Z" fill="#424242"/>
<path d="M93.7918 70.4745L98.6242 85.1997L99.3118 87.2961C99.4318 87.6561 100.011 87.5049 99.8902 87.1365L95.0578 72.4113L94.3702 70.3197C94.2502 69.9597 93.6706 70.1109 93.7918 70.4793V70.4745Z" fill="#424242"/>
<path d="M112.783 66.3599C111.568 68.1191 110.512 70.0043 109.536 71.9027C107.625 75.6227 105.998 79.5995 105.355 83.7467C104.995 86.0387 104.961 88.3954 105.553 90.6526C105.65 91.0258 106.23 90.8675 106.131 90.4931C105.051 86.3759 106.075 81.9563 107.484 78.0467C108.684 74.7059 110.3 71.5067 112.143 68.4755C112.515 67.8635 112.894 67.2527 113.301 66.6635C113.521 66.3455 113.001 66.0443 112.783 66.3611V66.3599Z" fill="#424242"/>
<path d="M67.0851 83.1128C67.3139 83.0016 67.5403 82.8888 67.7643 82.7744C67.2691 85.2224 66.7731 87.67 66.2763 90.1172L65.2431 95.2136C65.1663 95.5928 64.5879 95.432 64.6647 95.0552C64.6707 95.024 64.6791 94.994 64.6827 94.964C64.7763 94.2932 64.9551 93.6236 65.0895 92.9612C65.3727 91.5604 65.6563 90.1604 65.9403 88.7612L67.0851 83.1128Z" fill="#424242"/>
<path d="M75.5967 44.131C75.5907 44.161 75.5823 44.1922 75.5775 44.2222C75.4851 44.893 75.3063 45.5614 75.1719 46.225C74.8887 47.625 74.6051 49.025 74.3211 50.425C73.5387 54.2866 72.7563 58.1474 71.9739 62.0074C71.7822 61.9496 71.5865 61.9063 71.3883 61.8778C71.4315 61.6666 71.4735 61.4566 71.5167 61.2454L72.3915 56.9254C72.9227 54.3062 73.4539 51.6862 73.9851 49.0654L75.0183 43.969C75.0243 43.9311 75.0386 43.8951 75.0602 43.8634C75.0818 43.8317 75.1101 43.8052 75.1431 43.7857C75.1761 43.7662 75.213 43.7542 75.2512 43.7506C75.2894 43.7471 75.3278 43.752 75.3639 43.765C75.4431 43.7831 75.5119 43.8316 75.5555 43.9001C75.5991 43.9687 75.6139 44.0516 75.5967 44.131Z" fill="#424242"/>
<path d="M67.7622 91.6859L72.7434 82.4255L73.4634 81.0923C73.6458 80.7527 73.1286 80.4491 72.945 80.7899L67.9638 90.0503L67.2438 91.3835C67.0614 91.7231 67.5786 92.0267 67.7622 91.6859Z" fill="#424242"/>
<path d="M85.4665 43.9721L81.8809 58.9553L81.3721 61.0805L81.6613 60.8597H77.7001C77.3137 60.8597 77.3137 61.4597 77.7001 61.4597H81.6601C81.7256 61.4588 81.7891 61.4369 81.8412 61.3972C81.8933 61.3574 81.9312 61.3019 81.9493 61.2389L85.5361 46.2605L86.0449 44.1317C86.1349 43.7561 85.5565 43.5965 85.4665 43.9721Z" fill="#424242"/>
<path d="M50.34 42.8142V61.1622C50.34 61.5486 50.94 61.5486 50.94 61.1622V42.8142C50.94 42.4278 50.34 42.4278 50.34 42.8142Z" fill="#424242"/>
<path d="M68.6219 110.166C68.0675 109.26 67.5123 108.354 66.9563 107.448L59.6639 95.544L55.0835 88.0692C55.0745 88.0551 55.0668 88.0403 55.0607 88.0248C54.9275 87.7128 55.4087 87.4512 55.6019 87.7656L55.6283 87.8088C56.1755 88.7 56.7219 89.592 57.2675 90.4848C59.6987 94.452 62.1295 98.42 64.5599 102.389L67.8971 107.834C67.8167 107.576 67.7375 107.317 67.6571 107.059L63.6179 93.9312L61.0823 85.6896L61.0727 85.6584C60.9623 85.2984 61.5035 85.1412 61.6391 85.4676C61.6438 85.4777 61.6478 85.4881 61.6511 85.4988L62.5847 88.5348L66.6239 101.662L69.1691 109.936C69.2735 110.269 68.7959 110.449 68.6219 110.166Z" fill="#424242"/>
<path d="M41.9825 95.2855L45.5825 101.045L45.6905 100.635L35.6105 106.833L34.1705 107.715C33.8417 107.917 34.1429 108.435 34.4729 108.233L44.5529 102.035L45.9929 101.153C46.0607 101.113 46.1099 101.047 46.13 100.97C46.1502 100.894 46.1397 100.812 46.1009 100.743L42.5009 94.9831C42.2969 94.6567 41.7809 94.9567 41.9825 95.2855Z" fill="#424242"/>
<path d="M31.8423 77.9545C28.6791 78.9637 25.5915 80.2981 22.6023 81.7453C17.1699 84.3853 11.6307 87.6733 7.74387 92.3893C5.73507 94.8277 4.24827 97.7053 4.01667 100.896C3.98907 101.281 4.58907 101.28 4.61667 100.896C5.04867 94.9513 9.88707 90.3781 14.4735 87.1525C18.8715 84.0589 23.7687 81.6565 28.7703 79.7041C29.8347 79.2889 30.9075 78.8821 31.9971 78.5341C32.3631 78.4141 32.2071 77.8381 31.8375 77.9557L31.8423 77.9545Z" fill="#424242"/>
<path d="M130.05 41.4757C128.263 42.2929 126.671 43.9153 125.982 45.7525C125.442 47.1925 125.354 49.1965 126.198 50.5429C126.839 51.5665 128.04 51.8377 129.125 51.3829C130.182 50.9449 131.183 49.8049 130.772 48.5965C130.652 48.2365 130.069 48.3889 130.194 48.7561C130.499 49.6525 129.714 50.4757 128.946 50.8117C127.879 51.2785 126.87 50.8201 126.474 49.7317C125.545 47.1757 126.843 44.5105 128.862 42.9301C129.321 42.5599 129.822 42.2445 130.355 41.9905C130.705 41.8297 130.4 41.3125 130.052 41.4721L130.05 41.4757Z" fill="#424242"/>
</svg>
