<svg width="17" height="24" viewBox="0 0 17 24" fill="none" xmlns="http://www.w3.org/2000/svg">
<path d="M1.4788 9.54682V17.2948C1.4788 17.3208 1.47479 17.3458 1.47081 17.3718C1.47482 17.3968 1.4788 17.4218 1.4788 17.4488C1.4788 18.2218 1.3678 18.9808 1.14981 19.7128H15.3708C15.1528 18.9808 15.0418 18.2218 15.0418 17.4488C15.0418 17.4208 15.0458 17.3938 15.0498 17.3668C15.0458 17.3428 15.0428 17.3188 15.0428 17.2948V9.56678C15.0428 5.91379 12.0598 2.94178 8.39282 2.94178H8.10883C4.45283 2.94178 1.47883 5.90378 1.47883 9.54677L1.4788 9.54682ZM7.68381 1.61182V1.99582C7.82533 1.98778 7.96705 1.98378 8.1088 1.98382H8.39279C8.5978 1.98382 8.79979 1.99382 8.9998 2.00981V1.61182C8.9998 1.25182 8.70479 0.957815 8.34179 0.957815C7.9788 0.957815 7.68379 1.25182 7.68379 1.61182H7.68381ZM16.4868 20.0138C16.5848 20.2598 16.4638 20.5388 16.2178 20.6358C16.1608 20.6588 16.1008 20.6708 16.0418 20.6708C16.0388 20.6708 16.0358 20.6688 16.0318 20.6688C16.0278 20.6688 16.0238 20.6698 16.0198 20.6698H0.479803L0.478795 20.6708C0.447787 20.6708 0.416803 20.6668 0.385795 20.6608C0.371803 20.6578 0.358795 20.6528 0.345787 20.6488C0.330787 20.6438 0.316795 20.6418 0.302779 20.6358C0.300787 20.6348 0.299779 20.6338 0.298771 20.6338C0.279764 20.6268 0.261764 20.6158 0.243764 20.6058C0.233756 20.5998 0.222764 20.5948 0.213764 20.5888C0.200756 20.5808 0.188756 20.5698 0.176756 20.5598C0.165763 20.5498 0.151748 20.5418 0.141763 20.5308C0.131756 20.5208 0.124771 20.5109 0.116756 20.5019C0.104756 20.4879 0.0927559 20.4749 0.0827481 20.4599C0.0737481 20.4468 0.0667402 20.4318 0.0597558 20.4179C0.052748 20.4048 0.0447559 20.3928 0.0387559 20.3799C0.0327559 20.3659 0.0297559 20.3509 0.0247637 20.3369C0.0207559 20.3219 0.0137715 20.3058 0.0107715 20.2908C0.00877933 20.2799 0.00777139 20.2668 0.00676358 20.2548C0.00376358 20.2358 0.000763672 20.2158 -0.000244141 20.1959V20.1909C-0.000244141 20.1789 0.00275562 20.1679 0.00376344 20.1559C0.00477125 20.1379 0.00575556 20.1199 0.00875556 20.1009C0.0127634 20.0829 0.0187637 20.0639 0.0247637 20.0459C0.0277637 20.0358 0.0297556 20.0249 0.0337634 20.0139C0.356756 19.1979 0.520771 18.3349 0.520771 17.4489C0.520771 17.4219 0.524779 17.3969 0.528764 17.3719C0.524756 17.3459 0.520771 17.3209 0.520771 17.2949V9.54689C0.520771 5.84789 3.19977 2.76189 6.72578 2.11188V1.61189C6.72578 0.722878 7.45077 -0.00012207 8.34177 -0.00012207C9.23277 -0.00012207 9.95776 0.722878 9.95776 1.61189V2.14589C13.4048 2.86689 15.9998 5.91989 15.9998 9.56688V17.2949C15.9998 17.3219 15.9968 17.3499 15.9918 17.3769C15.9958 17.3999 15.9998 17.4239 15.9998 17.4489C15.9998 18.3349 16.1638 19.1979 16.4868 20.0139L16.4868 20.0138ZM10.4007 21.1166C10.6647 21.1166 10.8797 21.3316 10.8797 21.5956C10.8797 22.8886 9.8237 23.9416 8.52669 23.9416C7.22968 23.9416 6.17369 22.8886 6.17369 21.5956C6.17369 21.3316 6.38868 21.1166 6.65268 21.1166C6.91769 21.1166 7.13167 21.3316 7.13167 21.5956C7.13167 22.3616 7.75766 22.9846 8.52667 22.9846C9.29568 22.9846 9.92167 22.3616 9.92167 21.5956C9.92167 21.3316 10.1357 21.1166 10.4007 21.1166H10.4007Z" fill="#424242"/>
</svg>
