<svg width="24" height="24" viewBox="0 0 24 24" fill="none" xmlns="http://www.w3.org/2000/svg">
<path d="M16.9088 8.535H7.86L6.26625 6.31125C6.19724 6.21432 6.10615 6.1352 6.00052 6.08042C5.89489 6.02565 5.77774 5.9968 5.65875 5.99625H2.54625C2.41165 5.99641 2.27956 6.03271 2.16378 6.10134C2.04799 6.16997 1.95275 6.26843 1.888 6.38644C1.82326 6.50444 1.79137 6.63766 1.79568 6.77219C1.79999 6.90672 1.84033 7.03763 1.9125 7.15125L3.03375 8.895L1.4625 10.9875C1.37893 11.0989 1.32804 11.2314 1.31553 11.3701C1.30302 11.5089 1.32939 11.6483 1.39168 11.7729C1.45397 11.8975 1.54972 12.0023 1.6682 12.0755C1.78668 12.1487 1.92322 12.1875 2.0625 12.1875H2.58L2.5725 20.505C2.5725 20.7039 2.65152 20.8947 2.79217 21.0353C2.93282 21.176 3.12359 21.255 3.3225 21.255H16.9088C17.1081 21.2552 17.2993 21.1764 17.4406 21.0358C17.5819 20.8952 17.6617 20.7043 17.6625 20.505V9.285C17.6617 9.08568 17.5819 8.89481 17.4406 8.75422C17.2993 8.61363 17.1081 8.5348 16.9088 8.535ZM2.54625 6.74625H5.65875L6.9375 8.535H3.69375L2.54625 6.74625ZM2.0625 11.4375L3.67875 9.285H13.2675L11.6513 11.4375H2.0625ZM13.6425 20.505H3.3225L3.33 12.1875H11.6513C11.7677 12.1875 11.8825 12.1604 11.9867 12.1083C12.0908 12.0562 12.1814 11.9806 12.2513 11.8875L13.6425 10.035V20.505ZM16.9088 20.505H14.3925V9.285H16.9125L16.9088 20.505Z" fill="white"/>
<path d="M22.6462 8.535C22.5141 7.05714 21.8693 5.67201 20.8236 4.61942C19.7778 3.56683 18.3969 2.91304 16.92 2.77125C16.0171 2.68677 15.1066 2.79853 14.2509 3.09886C13.3952 3.3992 12.6145 3.881 11.9625 4.51125L11.2425 4.11375C11.1856 4.08209 11.1215 4.0658 11.0564 4.06645C10.9913 4.06711 10.9275 4.0847 10.8712 4.1175C10.8154 4.15028 10.7689 4.19676 10.7361 4.25254C10.7033 4.30832 10.6853 4.37155 10.6837 4.43625L10.6725 5.00625C10.665 5.355 10.6537 5.70375 10.6575 6.0525C10.6575 6.27 10.6612 6.49125 10.665 6.7125L10.6687 7.0425C10.6706 7.06746 10.6706 7.09253 10.6687 7.1175C10.6648 7.21525 10.6698 7.31316 10.6837 7.41C10.6946 7.46013 10.7155 7.50756 10.7452 7.54944C10.7748 7.59132 10.8126 7.62679 10.8562 7.65375C10.8998 7.6815 10.9487 7.69955 10.9999 7.70667C11.051 7.71379 11.103 7.70981 11.1525 7.695L14.28 6.81C14.3444 6.79114 14.4025 6.75534 14.4484 6.70635C14.4942 6.65736 14.5261 6.59696 14.5406 6.53146C14.5552 6.46596 14.5519 6.39775 14.5311 6.33396C14.5104 6.27016 14.4728 6.2131 14.4225 6.16875L13.8825 5.6925C14.6941 5.08969 15.6993 4.8067 16.7062 4.8975C17.6923 4.98515 18.6149 5.42138 19.3083 6.1279C20.0018 6.83441 20.4207 7.76495 20.49 8.7525C20.5369 9.40828 20.4255 10.0657 20.165 10.6694C19.9046 11.2731 19.5029 11.8053 18.9937 12.2212C18.8915 12.3055 18.8071 12.4092 18.7453 12.5264C18.6835 12.6435 18.6456 12.7718 18.6337 12.9037C18.6111 13.1814 18.6972 13.457 18.8737 13.6725L18.9562 13.7662C19.0537 13.8836 19.1757 13.978 19.3138 14.0428C19.4518 14.1076 19.6025 14.1412 19.755 14.1412C19.9922 14.1405 20.2216 14.0569 20.4037 13.905C21.1797 13.2545 21.7884 12.4273 22.1786 11.4929C22.5688 10.5585 22.7291 9.54419 22.6462 8.535ZM19.92 13.3312C19.8615 13.3757 19.7879 13.3956 19.715 13.3864C19.6421 13.3773 19.5757 13.34 19.53 13.2825L19.4512 13.1887C19.426 13.1596 19.407 13.1256 19.3954 13.0888C19.3838 13.0521 19.3798 13.0133 19.3837 12.975C19.3859 12.941 19.395 12.9078 19.4104 12.8775C19.4259 12.8472 19.4475 12.8204 19.4737 12.7987C20.0744 12.3076 20.5481 11.6791 20.8548 10.9664C21.1616 10.2537 21.2924 9.47763 21.2362 8.70375C21.1552 7.53725 20.6611 6.43783 19.8425 5.60279C19.024 4.76776 17.9346 4.2518 16.77 4.1475C16.6275 4.13625 16.485 4.1325 16.3425 4.1325C15.1235 4.1275 13.9476 4.58285 13.05 5.4075C13.0106 5.44274 12.9795 5.4862 12.9587 5.53479C12.938 5.58339 12.9282 5.63594 12.93 5.68875C12.93 5.74146 12.9414 5.79355 12.9634 5.84145C12.9854 5.88934 13.0175 5.93192 13.0575 5.96625L13.4137 6.28125L11.415 6.84375V6.6975C11.4112 6.48375 11.4075 6.26625 11.4075 6.04875C11.4037 5.7225 11.4112 5.39625 11.4225 5.07L11.8462 5.30625C11.9191 5.34635 12.0032 5.36112 12.0853 5.34822C12.1674 5.33532 12.2429 5.29549 12.3 5.235C12.821 4.68321 13.4494 4.24376 14.1464 3.94361C14.8435 3.64347 15.5945 3.48897 16.3534 3.4896C17.1123 3.49023 17.8631 3.64598 18.5597 3.94728C19.2562 4.24858 19.8838 4.68908 20.404 5.24172C20.9241 5.79437 21.3258 6.4475 21.5844 7.16101C21.8429 7.87452 21.9529 8.63336 21.9076 9.39092C21.8623 10.1485 21.6626 10.8888 21.3208 11.5664C20.979 12.244 20.5023 12.8446 19.92 13.3312Z" fill="white"/>
</svg>
