<svg width="22" height="27" viewBox="0 0 22 27" fill="none" xmlns="http://www.w3.org/2000/svg">
<path fill-rule="evenodd" clip-rule="evenodd" d="M9.40256 6.14499H16.7657C20.7191 6.14499 22.2073 8.14639 21.9774 11.0867C21.5972 15.941 18.6626 18.6267 14.77 18.6267H12.8047C12.2707 18.6267 11.9114 18.9802 11.767 19.9381L10.9326 25.5071C10.8775 25.8682 10.6874 26.0773 10.4023 26.1058H5.77608C5.34083 26.1058 5.18688 25.7732 5.30092 25.0528L8.12151 7.19986C8.23175 6.48521 8.62328 6.14499 9.40256 6.14499Z" fill="#EB7E92"/>
<path fill-rule="evenodd" clip-rule="evenodd" d="M4.79696 0H12.1677C14.2433 0 16.7065 0.0665233 18.3525 1.52053C19.453 2.49177 20.0308 4.03702 19.8978 5.702C19.4454 11.3299 16.0793 14.4831 11.5633 14.4831H7.92926C7.30964 14.4831 6.901 14.8936 6.72614 16.0036L5.71118 22.4659C5.64466 22.884 5.4641 23.1311 5.14098 23.1615H0.592689C0.0890119 23.1615 -0.0896524 22.7814 0.0414936 21.9413L3.31064 1.22783C3.44179 0.395337 3.89985 0 4.79696 0Z" fill="#EB7E92"/>
<path fill-rule="evenodd" clip-rule="evenodd" d="M6.83276 15.3478L8.11952 7.19969C8.23165 6.48504 8.62319 6.14291 9.40247 6.14291H16.7656C17.984 6.14291 18.9704 6.33298 19.7421 6.6846C19.0027 11.6948 15.7621 14.4773 11.5198 14.4773H7.89144C7.40487 14.4792 7.04754 14.7225 6.83276 15.3478Z" fill="#EB7E92"/>
</svg>
