<svg width="15" height="20" viewBox="0 0 15 20" fill="none" xmlns="http://www.w3.org/2000/svg">
<path fill-rule="evenodd" clip-rule="evenodd" d="M3.48671 4.87095C3.48671 2.95928 5.03088 1.40779 6.94987 1.40779C8.86003 1.40779 10.4123 2.95954 10.413 4.86952C10.4045 6.73213 8.94976 8.24118 7.11599 8.32357C7.00505 8.31553 6.88745 8.31591 6.77614 8.32365C4.94056 8.24213 3.48671 6.73207 3.48671 4.87095ZM6.94987 0C4.25131 0 2.07892 2.18385 2.07892 4.87095C2.07892 7.50199 4.15268 9.64426 6.76667 9.73212C6.79582 9.7331 6.825 9.73227 6.85405 9.72963C6.91711 9.7239 6.98474 9.7245 7.02999 9.72903C7.06112 9.73214 7.09242 9.73317 7.12368 9.73212C9.73819 9.64424 11.8099 7.50213 11.8208 4.87389L11.8208 4.87095C11.8208 2.18281 9.63801 0 6.94987 0ZM12.1929 11.9064C10.7668 10.9539 8.92135 10.4998 7.11169 10.4998C5.3018 10.4998 3.45282 10.954 2.01834 11.9051L2.01576 11.9069C0.734343 12.7647 0 13.9629 0 15.2499C0 16.5371 0.734593 17.7333 2.01673 18.5865C3.44713 19.5433 5.2945 20 7.10465 20C8.91514 20 10.7629 19.5431 12.1934 18.586L12.1935 18.5859C13.475 17.7281 14.2093 16.5299 14.2093 15.2428C14.2093 13.9557 13.4748 12.7597 12.1929 11.9064ZM1.40779 15.2499C1.40779 14.5405 1.80871 13.74 2.79759 13.0776C3.95332 12.3118 5.51532 11.9076 7.11169 11.9076C8.70887 11.9076 10.2656 12.3121 11.411 13.0771L11.4121 13.0778C12.4007 13.7356 12.8015 14.5336 12.8015 15.2428C12.8015 15.9525 12.4002 16.7534 11.4104 17.416C10.26 18.1857 8.70094 18.5922 7.10465 18.5922C5.50829 18.5922 3.94918 18.1857 2.79875 17.4159L2.79721 17.4149C1.80855 16.7571 1.40779 15.9591 1.40779 15.2499Z" fill="#424242"/>
</svg>
