<svg width="15" height="21" viewBox="0 0 15 21" fill="none" xmlns="http://www.w3.org/2000/svg">
<path fill-rule="evenodd" clip-rule="evenodd" d="M3.98671 5.37095C3.98671 3.45928 5.53088 1.90779 7.44987 1.90779C9.36003 1.90779 10.9123 3.45954 10.913 5.36952C10.9045 7.23213 9.44976 8.74118 7.61599 8.82357C7.50505 8.81553 7.38745 8.81591 7.27614 8.82365C5.44056 8.74213 3.98671 7.23207 3.98671 5.37095ZM7.44987 0.5C4.75131 0.5 2.57892 2.68385 2.57892 5.37095C2.57892 8.00199 4.65268 10.1443 7.26667 10.2321C7.29582 10.2331 7.325 10.2323 7.35405 10.2296C7.41711 10.2239 7.48474 10.2245 7.52999 10.229C7.56112 10.2321 7.59242 10.2332 7.62368 10.2321C10.2382 10.1442 12.3099 8.00213 12.3208 5.37389L12.3208 5.37095C12.3208 2.68281 10.138 0.5 7.44987 0.5ZM12.6929 12.4064C11.2668 11.4539 9.42135 10.9998 7.61169 10.9998C5.8018 10.9998 3.95282 11.454 2.51834 12.4051L2.51576 12.4069C1.23434 13.2647 0.5 14.4629 0.5 15.7499C0.5 17.0371 1.23459 18.2333 2.51673 19.0865C3.94713 20.0433 5.7945 20.5 7.60465 20.5C9.41514 20.5 11.2629 20.0431 12.6934 19.086L12.6935 19.0859C13.975 18.2281 14.7093 17.0299 14.7093 15.7428C14.7093 14.4557 13.9748 13.2597 12.6929 12.4064ZM1.90779 15.7499C1.90779 15.0405 2.30871 14.24 3.29759 13.5776C4.45332 12.8118 6.01532 12.4076 7.61169 12.4076C9.20887 12.4076 10.7656 12.8121 11.911 13.5771L11.9121 13.5778C12.9007 14.2356 13.3015 15.0336 13.3015 15.7428C13.3015 16.4525 12.9002 17.2534 11.9104 17.916C10.76 18.6857 9.20094 19.0922 7.60465 19.0922C6.00829 19.0922 4.44918 18.6857 3.29875 17.9159L3.29721 17.9149C2.30855 17.2571 1.90779 16.4591 1.90779 15.7499Z" fill="white"/>
</svg>
